<?xml version="1.0" encoding="utf-8"?>
<!-- Generator: Adobe Illustrator 27.5.0, SVG Export Plug-In . SVG Version: 6.00 Build 0)  -->
<svg version="1.1" xmlns="http://www.w3.org/2000/svg" xmlns:xlink="http://www.w3.org/1999/xlink" x="0px" y="0px"
	 viewBox="0 0 3710 3710" style="enable-background:new 0 0 3710 3710;" xml:space="preserve">
<g id="Background">
	<g>
		<g>
			<rect style="fill:#FFFFFF;" width="3710" height="3710"/>
		</g>
	</g>
</g>
<g id="Illustration">
	<g>
		<linearGradient id="SVGID_1_" gradientUnits="userSpaceOnUse" x1="3586.4946" y1="4024.3303" x2="1135.2167" y2="979.9969">
			<stop  offset="0" style="stop-color:#DAE3FE"/>
			<stop  offset="1" style="stop-color:#E9EFFD"/>
		</linearGradient>
		<path style="fill:url(#SVGID_1_);" d="M2915.532,2821.401c-56.491,59.147-109.943,97.29-152.174,127.426
			c-496.417,354.241-1083.809,250.981-1208.647,225.764c-184.346-37.237-540.682-109.216-798.307-410.525
			c-389.765-455.854-329.073-1174.041-26.745-1648.125c55.3-86.718,347.414-568.024,941.133-645.21
			c359.313-46.712,778.156,47.501,1081.47,300.232C3388.947,1301.467,3343.622,2373.18,2915.532,2821.401z"/>
		<g>
			<path style="fill:#BDD0FB;" d="M1465.428,3006.331c0,0,93.315-890.24-917.586-1613.095c-21.47-15.352-51.517-1.167-53.078,25.181
				C480.057,1666.647,488.687,2632.545,1465.428,3006.331z"/>
			<path style="opacity:0.5;fill:#FFFFFF;" d="M1419.825,2924.83c-64.594-135.936-317.407-654.825-610.55-1082.508
				c-2.716-3.962-8.774-0.28-6.493,3.947c112.507,208.52,493.3,910.83,610.474,1082.324
				C1415.902,2932.466,1421.838,2929.067,1419.825,2924.83z"/>
		</g>
		<g>
			<path style="fill:#91B3FA;" d="M812.328,615.102c237.368,221.731,1256.701,1265.794,708.218,2379.619
				c-10.669,21.666-40.436,24.455-54.869,5.093c-153.474-205.895-813.226-1168.072-707.506-2363.873
				C760.541,609.134,792.663,596.732,812.328,615.102z"/>
			<path style="opacity:0.5;fill:#FFFFFF;" d="M941.367,966.748c-2.728-4.897,4.282-9.257,7.419-4.611
				c143.69,212.784,545.385,898.948,532.031,1903.275C1480.818,2865.413,1445.491,1871.813,941.367,966.748z"/>
		</g>
		<g>
			
				<linearGradient id="SVGID_00000154388191881702318850000010890878418634107561_" gradientUnits="userSpaceOnUse" x1="2449.1484" y1="-1987.0966" x2="2058.3181" y2="2709.4465">
				<stop  offset="0" style="stop-color:#4F52FF"/>
				<stop  offset="1" style="stop-color:#4042E2"/>
			</linearGradient>
			<path style="fill:url(#SVGID_00000154388191881702318850000010890878418634107561_);" d="M1274.41,816.042h1613.942
				c89.04,0,162.461,69.778,166.988,158.702l97.038,1986.411c3.542,69.586-51.235,128.283-120.9,129.549l-1849.781,33.62
				c-65.46,1.19-119.165-51.548-119.165-117.019l22.094-2001.478C1084.625,901.012,1169.595,816.042,1274.41,816.042z"/>
			<path style="fill:#FFFFFF;" d="M1123.912,2549.563c-2.287,0-4.142-1.853-4.142-4.142v-50.608c0-2.289,1.854-4.142,4.142-4.142
				c2.287,0,4.142,1.853,4.142,4.142v50.608C1128.054,2547.711,1126.199,2549.563,1123.912,2549.563z"/>
			<g>
				<path style="fill:#7D97F4;" d="M1279.374,797.075c220.398,29.888,978.291,122.327,1604.907,74.225
					c28.576-2.193,53.375,19.458,54.896,48.077L3042,2916.217c1.713,32.227-22.896,59.786-55.113,61.692
					c-263.543,15.596-1348.896,75.886-1736.025,35.338c-23.561-2.468-41.446-22.305-41.585-45.995l7.571-2115.195
					C1216.65,818.523,1246.143,792.568,1279.374,797.075z"/>
				<path style="fill:#BDD0FB;" d="M1302.98,858.043c212.099,28.762,941.453,117.721,1544.474,71.43
					c27.5-2.111,51.365,18.725,52.829,46.267l98.119,1908.337c1.648,31.013-22.034,57.534-53.038,59.369
					c-253.618,15.009-1298.102,73.029-1670.654,34.008c-22.674-2.375-39.885-21.465-40.02-44.263l8.118-2022.235
					C1242.619,878.684,1271,853.706,1302.98,858.043z"/>
				<g>
					<path style="fill:#FFFFFF;" d="M1594.647,1659.854c-0.119,0-0.241,0-0.36,0l-139.919-1.343
						c-19.364-0.186-35.345-13.465-37.171-30.89l-12.302-117.394c-0.686-6.556,1.355-13.044,5.746-18.27
						c4.945-5.877,12.435-9.57,20.553-10.124h-0.002c11.78-0.805,28.358-2.217,45.91-3.713c37.011-3.151,83.073-7.074,108.959-7.398
						c0.186,0,0.372-0.004,0.556-0.004c17.841,0,33.183,10.836,37.42,26.501c7.246,26.796,6.605,77.707,5.22,131.951
						C1628.823,1646.159,1613.332,1659.854,1594.647,1659.854z M1586.617,1479.002c-0.15,0-0.301,0-0.451,0.004
						c-25.587,0.319-71.484,4.227-108.362,7.37c-17.587,1.497-34.198,2.912-46.045,3.725h-0.002
						c-5.885,0.4-11.271,3.021-14.775,7.188c-2.93,3.487-4.297,7.774-3.847,12.074l12.302,117.394
						c1.387,13.234,13.859,23.326,29.013,23.472l139.917,1.343c0.093,0,0.188,0,0.283,0c14.225,0,26.008-10.092,26.327-22.61
						c1.367-53.609,2.018-103.857-4.937-129.581C1612.782,1487.334,1600.719,1479.002,1586.617,1479.002z"/>
					<path style="opacity:0.6;fill:#FFFFFF;" d="M1446.893,1503.444c29.393-2.009,93.277-8.495,123.576-8.873
						c12.839-0.16,24.099,7.597,27.11,18.729c5.847,21.622,5.073,64.719,4.058,104.497c-0.304,11.913-11.245,21.422-24.605,21.294
						l-111.812-1.074c-13.75-0.132-25.166-9.507-26.445-21.718l-9.83-93.813C1427.928,1512.782,1435.997,1504.188,1446.893,1503.444
						z"/>
					<g style="opacity:0.6;">
						<path style="fill:#FFFFFF;" d="M1712.351,1539.434c-3.497-0.061-5.384,2.58-4.195,5.869l20.957,57.96
							c1.189,3.289,5.023,5.979,8.521,5.979h984.614c3.497,0,6.273-2.86,6.168-6.355l-1.184-39.485
							c-0.105-3.496-3.052-6.405-6.548-6.466L1712.351,1539.434z"/>
					</g>
					
						<linearGradient id="SVGID_00000155125415141761481390000007082442252105080719_" gradientUnits="userSpaceOnUse" x1="1863.6825" y1="941.6832" x2="1149.2196" y2="2161.1033">
						<stop  offset="0" style="stop-color:#FF928E"/>
						<stop  offset="1" style="stop-color:#FE7062"/>
					</linearGradient>
					<path style="fill:url(#SVGID_00000155125415141761481390000007082442252105080719_);" d="M1452.849,1521.853L1452.849,1521.853
						c10.387-6.095,23.755-2.458,29.623,8.06l27.597,49.471c2.763,4.952,9.989,4.639,12.313-0.534l68.45-152.39
						c3.414-7.602,14.735-5.032,14.611,3.301c-0.699,46.613-13.067,135.217-87.546,209.383c0,0-41.044-15.954-74.097-88.536
						C1439.024,1540.124,1442.914,1527.683,1452.849,1521.853z"/>
					<path style="fill:#FFFFFF;" d="M1594.656,1959.731c-0.123,0-0.245,0-0.37,0l-139.917-1.343
						c-19.364-0.186-35.345-13.465-37.171-30.886l-12.302-117.394c-0.686-6.557,1.353-13.044,5.744-18.27
						c4.943-5.877,12.436-9.57,20.553-10.128l0,0c11.807-0.805,28.428-2.221,46.027-3.721c36.971-3.147,82.982-7.066,108.842-7.39
						c0.182,0,0.366-0.004,0.546-0.004c17.849,0,33.193,10.836,37.43,26.505c7.246,26.792,6.605,77.703,5.22,131.947
						C1628.823,1946.035,1613.336,1959.731,1594.656,1959.731z M1431.758,1789.977c-5.889,0.4-11.275,3.026-14.777,7.192
						c-2.93,3.487-4.297,7.774-3.847,12.074l12.302,117.394c1.387,13.234,13.859,23.322,29.013,23.467l139.917,1.343
						c0.095,0,0.194,0,0.291,0c14.221,0.004,26-10.088,26.319-22.61c1.367-53.609,2.018-103.857-4.937-129.577
						c-3.292-12.175-15.463-20.729-29.876-20.377c-25.559,0.319-71.404,4.223-108.243,7.361
						C1460.288,1787.745,1443.631,1789.164,1431.758,1789.977L1431.758,1789.977z"/>
					<path style="opacity:0.6;fill:#FFFFFF;" d="M1446.893,1803.321c29.393-2.009,93.277-8.495,123.576-8.873
						c12.839-0.16,24.099,7.596,27.11,18.729c5.847,21.622,5.073,64.719,4.058,104.497c-0.304,11.913-11.245,21.422-24.605,21.294
						l-111.812-1.074c-13.75-0.132-25.166-9.507-26.445-21.717l-9.83-93.814C1427.928,1812.659,1435.997,1804.066,1446.893,1803.321
						z"/>
					<g style="opacity:0.6;">
						<path style="fill:#FFFFFF;" d="M1712.351,1839.312c-3.497-0.061-5.384,2.58-4.195,5.869l20.957,57.96
							c1.189,3.289,5.023,5.979,8.521,5.979h984.614c3.497,0,6.273-2.86,6.168-6.356l-1.184-39.485
							c-0.105-3.495-3.052-6.405-6.548-6.466L1712.351,1839.312z"/>
					</g>
					
						<linearGradient id="SVGID_00000093870117514696098740000005695534178950140082_" gradientUnits="userSpaceOnUse" x1="1994.4806" y1="1018.3188" x2="1280.0176" y2="2237.739">
						<stop  offset="0" style="stop-color:#FF928E"/>
						<stop  offset="1" style="stop-color:#FE7062"/>
					</linearGradient>
					<path style="fill:url(#SVGID_00000093870117514696098740000005695534178950140082_);" d="M1452.849,1821.73L1452.849,1821.73
						c10.387-6.095,23.755-2.458,29.623,8.06l27.597,49.471c2.763,4.952,9.989,4.639,12.313-0.534l68.45-152.39
						c3.414-7.601,14.735-5.032,14.611,3.301c-0.699,46.613-13.067,135.217-87.546,209.383c0,0-41.044-15.953-74.097-88.535
						C1439.024,1840.001,1442.914,1827.561,1452.849,1821.73z"/>
					<path style="fill:#FFFFFF;" d="M1594.656,2259.607c-0.123,0-0.245,0-0.37,0l-139.917-1.343
						c-19.364-0.186-35.345-13.465-37.171-30.886l-12.302-117.394c-0.686-6.556,1.353-13.044,5.744-18.27
						c4.943-5.877,12.436-9.57,20.553-10.128l0,0c11.807-0.805,28.428-2.221,46.027-3.721c36.971-3.147,82.982-7.066,108.842-7.39
						c0.182,0,0.364-0.004,0.546-0.004c17.847,0,33.193,10.836,37.43,26.505c7.246,26.796,6.605,77.703,5.22,131.947
						C1628.823,2245.912,1613.336,2259.607,1594.656,2259.607z M1431.758,2089.854c-5.889,0.4-11.275,3.026-14.777,7.192
						c-2.93,3.487-4.297,7.774-3.847,12.073l12.302,117.394c1.387,13.234,13.859,23.322,29.013,23.468l139.917,1.343
						c0.095,0,0.194,0,0.291,0c14.221,0.004,26-10.087,26.319-22.61c1.367-53.609,2.018-103.856-4.937-129.577
						c-3.292-12.175-15.463-20.652-29.876-20.377c-25.559,0.32-71.404,4.223-108.243,7.362
						C1460.288,2087.621,1443.631,2089.041,1431.758,2089.854L1431.758,2089.854z"/>
					<path style="opacity:0.6;fill:#FFFFFF;" d="M1446.893,2103.198c29.393-2.009,93.277-8.495,123.576-8.873
						c12.839-0.16,24.099,7.596,27.11,18.729c5.847,21.622,5.073,64.719,4.058,104.497c-0.304,11.913-11.245,21.423-24.605,21.294
						l-111.812-1.074c-13.75-0.132-25.166-9.507-26.445-21.718l-9.83-93.813C1427.928,2112.537,1435.997,2103.943,1446.893,2103.198
						z"/>
					<g style="opacity:0.6;">
						<path style="fill:#FFFFFF;" d="M1712.351,2139.188c-3.497-0.06-5.371,2.577-4.166,5.86l21.283,57.981
							c1.205,3.283,5.052,5.969,8.549,5.969h999.748c3.497,0,6.271-2.86,6.165-6.355l-1.202-39.485
							c-0.106-3.496-3.054-6.404-6.551-6.464L1712.351,2139.188z"/>
					</g>
					
						<linearGradient id="SVGID_00000110468783775130571520000005467846664519671709_" gradientUnits="userSpaceOnUse" x1="2104.4587" y1="1318.9203" x2="1164.3754" y2="2629.6643">
						<stop  offset="0" style="stop-color:#FF928E"/>
						<stop  offset="1" style="stop-color:#FE7062"/>
					</linearGradient>
					<path style="fill:url(#SVGID_00000110468783775130571520000005467846664519671709_);" d="M1452.849,2121.608L1452.849,2121.608
						c10.387-6.095,23.755-2.458,29.623,8.06l27.597,49.471c2.763,4.952,9.989,4.639,12.313-0.534l68.45-152.39
						c3.414-7.602,14.735-5.031,14.611,3.301c-0.699,46.613-13.067,135.218-87.546,209.384c0,0-41.044-15.954-74.097-88.536
						C1439.024,2139.878,1442.914,2127.438,1452.849,2121.608z"/>
					<path style="fill:#FFFFFF;" d="M1594.656,2559.484c-0.123,0-0.245,0-0.37,0l-139.917-1.343
						c-19.364-0.186-35.345-13.465-37.171-30.885l-12.302-117.394c-0.686-6.557,1.355-13.044,5.746-18.27
						c4.945-5.877,12.435-9.57,20.553-10.124h-0.002c11.778-0.805,28.354-2.217,45.902-3.713
						c37.015-3.151,83.079-7.078,108.969-7.398c0.184,0,0.37-0.004,0.554-0.004c17.841,0,33.183,10.836,37.42,26.501
						c7.246,26.796,6.605,77.703,5.22,131.947C1628.823,2545.788,1613.336,2559.484,1594.656,2559.484z M1586.617,2378.635
						c-0.15,0-0.301,0-0.451,0.004c-25.589,0.315-71.489,4.227-108.368,7.369c-17.584,1.497-34.192,2.912-46.039,3.725h-0.002
						c-5.885,0.4-11.271,3.021-14.775,7.188c-2.93,3.486-4.297,7.774-3.847,12.073l12.302,117.394
						c1.387,13.234,13.859,23.322,29.013,23.468l139.917,1.343c0.095,0,0.194,0,0.291,0c14.221,0.004,26-10.088,26.319-22.61
						c1.367-53.609,2.018-103.856-4.937-129.577C1612.782,2386.968,1600.719,2378.635,1586.617,2378.635z"/>
					<path style="opacity:0.6;fill:#FFFFFF;" d="M1446.893,2403.075c29.393-2.009,93.277-8.495,123.576-8.873
						c12.839-0.16,24.099,7.597,27.11,18.729c5.847,21.622,5.073,64.719,4.058,104.497c-0.304,11.913-11.245,21.422-24.605,21.294
						l-111.812-1.074c-13.75-0.132-25.166-9.507-26.445-21.718l-9.83-93.813C1427.928,2412.414,1435.997,2403.82,1446.893,2403.075z
						"/>
					<g style="opacity:0.6;">
						<path style="fill:#FFFFFF;" d="M1712.351,2439.062c-3.497-0.058-5.346,2.571-4.11,5.842l21.923,58.022
							c1.236,3.271,5.109,5.948,8.606,5.948h1029.444c3.497,0,6.269-2.86,6.159-6.355l-1.237-39.485
							c-0.11-3.495-3.06-6.403-6.557-6.461L1712.351,2439.062z"/>
					</g>
					
						<linearGradient id="SVGID_00000052101246341796406810000009627459934650921912_" gradientUnits="userSpaceOnUse" x1="2256.0779" y1="1171.5881" x2="1541.6147" y2="2391.0085">
						<stop  offset="0" style="stop-color:#FF928E"/>
						<stop  offset="1" style="stop-color:#FE7062"/>
					</linearGradient>
					<path style="fill:url(#SVGID_00000052101246341796406810000009627459934650921912_);" d="M1452.849,2421.485L1452.849,2421.485
						c10.387-6.095,23.755-2.458,29.623,8.059l27.597,49.471c2.763,4.952,9.989,4.639,12.313-0.534l68.45-152.39
						c3.414-7.602,14.735-5.032,14.611,3.301c-0.699,46.613-13.067,135.217-87.546,209.383c0,0-41.044-15.953-74.097-88.535
						C1439.024,2439.756,1442.914,2427.315,1452.849,2421.485z"/>
					<path style="fill:#FFFFFF;" d="M1611.413,2858.598c-0.123,0-0.245,0-0.37,0l-139.917-1.343
						c-19.364-0.186-35.345-13.465-37.171-30.886l-12.302-117.394c-0.686-6.556,1.355-13.044,5.745-18.27
						c4.945-5.877,12.436-9.57,20.553-10.124h-0.002c11.778-0.805,28.354-2.217,45.902-3.713
						c37.015-3.151,83.079-7.078,108.969-7.398c0.184,0,0.37-0.004,0.554-0.004c17.841,0,33.183,10.836,37.42,26.501
						c7.246,26.796,6.605,77.703,5.22,131.947C1645.581,2844.902,1630.094,2858.598,1611.413,2858.598z M1603.374,2677.75
						c-0.15,0-0.301,0-0.451,0.004c-25.589,0.315-71.489,4.227-108.369,7.369c-17.584,1.497-34.192,2.912-46.039,3.725h-0.002
						c-5.885,0.4-11.271,3.021-14.775,7.188c-2.931,3.487-4.298,7.774-3.847,12.073l12.302,117.394
						c1.387,13.234,13.859,23.322,29.013,23.468l139.917,1.343c0.095,0,0.194,0,0.291,0c14.221,0.004,26-10.087,26.319-22.61
						c1.367-53.609,2.018-103.856-4.937-129.577C1629.539,2686.082,1617.476,2677.75,1603.374,2677.75z"/>
					<path style="opacity:0.6;fill:#FFFFFF;" d="M1463.65,2702.19c29.393-2.009,93.277-8.495,123.576-8.873
						c12.839-0.16,24.099,7.596,27.11,18.729c5.847,21.621,5.073,64.719,4.058,104.497c-0.304,11.913-11.245,21.422-24.605,21.294
						l-111.812-1.074c-13.75-0.132-25.166-9.507-26.445-21.718l-9.83-93.813C1444.685,2711.528,1452.755,2702.935,1463.65,2702.19z"
						/>
					<g style="opacity:0.6;">
						<path style="fill:#FFFFFF;" d="M1735.673,2738.176c-3.497-0.058-5.348,2.571-4.113,5.844l21.886,58.02
							c1.234,3.272,5.105,5.949,8.603,5.949h1027.71c3.497,0,6.269-2.86,6.159-6.355l-1.235-39.485
							c-0.109-3.495-3.06-6.403-6.556-6.461L1735.673,2738.176z"/>
					</g>
					
						<linearGradient id="SVGID_00000092455276543361291450000009282711923229267338_" gradientUnits="userSpaceOnUse" x1="2272.8354" y1="1470.7023" x2="1558.3721" y2="2690.123">
						<stop  offset="0" style="stop-color:#FF928E"/>
						<stop  offset="1" style="stop-color:#FE7062"/>
					</linearGradient>
					<path style="fill:url(#SVGID_00000092455276543361291450000009282711923229267338_);" d="M1469.607,2720.599L1469.607,2720.599
						c10.387-6.095,23.755-2.458,29.623,8.06l27.597,49.471c2.763,4.952,9.989,4.639,12.313-0.534l68.449-152.39
						c3.415-7.602,14.735-5.032,14.611,3.301c-0.699,46.613-13.067,135.217-87.546,209.383c0,0-41.044-15.953-74.097-88.535
						C1455.782,2738.87,1459.671,2726.429,1469.607,2720.599z"/>
				</g>
				<path style="fill:#FFFFFF;" d="M2704.506,1122.924l-1216.12,1.801c-5.389,0.008-9.948-3.34-10.648-7.819l-9.223-59.015
					c-0.841-5.381,4.156-10.154,10.629-10.154h1215.351c5.321,0,9.836,3.271,10.607,7.685l9.991,57.213
					C2716.039,1118.052,2711.036,1122.914,2704.506,1122.924z"/>
				<path style="fill:#FFFFFF;" d="M2799.593,1291.589H1416.277c-7.857,0-14.422-5.401-15.15-12.464l-6.835-66.279
					c-0.341-3.305,2.539-6.158,6.216-6.158H2777.6c10.213,0,18.747,7.021,19.693,16.202l6.636,64.402
					C2804.167,1289.599,2802.158,1291.589,2799.593,1291.589z"/>
			</g>
			
				<linearGradient id="SVGID_00000159440808802363920450000004982999035701999756_" gradientUnits="userSpaceOnUse" x1="2361.5457" y1="256.097" x2="1619.188" y2="1232.651">
				<stop  offset="0" style="stop-color:#09005D"/>
				<stop  offset="1" style="stop-color:#1A0F91"/>
			</linearGradient>
			<path style="fill:url(#SVGID_00000159440808802363920450000004982999035701999756_);" d="M2181.479,497.006
				c-58.298-40.557-108.989-39.753-144.673-29.224c-32.551,9.604-53.649,41.032-50.553,74.83l15.389,167.969l183.122,16.251
				C2184.764,726.833,2295.81,576.545,2181.479,497.006z M2100.949,632.516c-25.218,0-45.661-20.442-45.661-45.661
				s20.443-45.662,45.661-45.662c25.218,0,45.661,20.443,45.661,45.662S2126.167,632.516,2100.949,632.516z"/>
			<g>
				<path style="fill:#BDD0FB;" d="M2019.936,639.647c-2.118,0-3.923-1.614-4.12-3.764l-2.451-26.748
					c-0.21-2.277,1.468-4.294,3.745-4.502c2.34-0.196,4.293,1.468,4.502,3.745l2.451,26.748c0.21,2.277-1.468,4.293-3.745,4.502
					C2020.188,639.641,2020.061,639.647,2019.936,639.647z M2015.132,587.227c-2.117,0-3.923-1.614-4.12-3.764l-1.861-20.311
					c-2.941-32.069,17.235-61.925,47.968-70.991c21.809-6.437,44.282-7.361,66.795-2.746c2.241,0.459,3.685,2.647,3.226,4.888
					c-0.457,2.239-2.637,3.691-4.888,3.226c-21.172-4.338-42.298-3.468-62.786,2.577c-26.954,7.952-44.646,34.15-42.067,62.291
					l1.861,20.311c0.21,2.279-1.468,4.293-3.745,4.502C2015.385,587.221,2015.258,587.227,2015.132,587.227z"/>
			</g>
			
				<linearGradient id="SVGID_00000021812539408780817590000003960057555413334926_" gradientUnits="userSpaceOnUse" x1="2442.9758" y1="317.9973" x2="1700.6188" y2="1294.5507">
				<stop  offset="0" style="stop-color:#09005D"/>
				<stop  offset="1" style="stop-color:#1A0F91"/>
			</linearGradient>
			<path style="fill:url(#SVGID_00000021812539408780817590000003960057555413334926_);" d="M1751.714,819.132v-84.449
				c0-29.152,24.162-52.501,53.298-51.503l582.244,19.949c25.84,0.885,46.766,21.281,48.313,47.089l4.866,81.144L1751.714,819.132z"
				/>
			<path style="fill:#BDD0FB;" d="M1968.82,714.723h-25.041c-2.287,0-4.142-1.854-4.142-4.142s1.854-4.142,4.142-4.142h25.041
				c2.287,0,4.142,1.855,4.142,4.142S1971.108,714.723,1968.82,714.723z"/>
			<path style="fill:#BDD0FB;" d="M1783.23,792.338c-2.287,0-4.142-1.854-4.142-4.142v-34.162c0-26.244,21.35-47.594,47.594-47.594
				h92.056c2.287,0,4.142,1.855,4.142,4.142s-1.854,4.142-4.142,4.142h-92.056c-21.676,0-39.311,17.635-39.311,39.311v34.162
				C1787.371,790.483,1785.517,792.338,1783.23,792.338z"/>
			
				<linearGradient id="SVGID_00000015320256609571498780000011197388756030956963_" gradientUnits="userSpaceOnUse" x1="2087.7988" y1="-112.5203" x2="2087.7988" y2="980.4695">
				<stop  offset="0" style="stop-color:#4F52FF"/>
				<stop  offset="1" style="stop-color:#4042E2"/>
			</linearGradient>
			<path style="fill:url(#SVGID_00000015320256609571498780000011197388756030956963_);" d="M1569.276,788.225l1018.163-0.028
				c36.61-0.001,67.91,26.345,74.155,62.419l0.861,4.979c6.84,39.513-23.581,75.652-63.681,75.652H1554.198
				c-23.998,0-43.123-20.065-41.971-44.036l2.247-46.752C1515.88,811.214,1539.999,788.225,1569.276,788.225z"/>
		</g>
		<g>
			<g>
				
					<linearGradient id="SVGID_00000124849791440598835140000004609334956268109452_" gradientUnits="userSpaceOnUse" x1="4606.2412" y1="2275.7153" x2="4602.9175" y2="2297.3721" gradientTransform="matrix(1 0 0 1 -3439.8557 0)">
					<stop  offset="0" style="stop-color:#FEBBBA"/>
					<stop  offset="1" style="stop-color:#FF928E"/>
				</linearGradient>
				<polygon style="fill:url(#SVGID_00000124849791440598835140000004609334956268109452_);" points="1179.247,2260.418 
					1176.066,2292.792 1153.124,2283.582 1156.432,2260.418 				"/>
				<g>
					
						<linearGradient id="SVGID_00000078026011243608344080000015716893182440712615_" gradientUnits="userSpaceOnUse" x1="4736.1353" y1="2245.6941" x2="4710.9766" y2="2409.6348" gradientTransform="matrix(1 0 0 1 -3439.8557 0)">
						<stop  offset="0" style="stop-color:#09005D"/>
						<stop  offset="1" style="stop-color:#1A0F91"/>
					</linearGradient>
					<path style="fill:url(#SVGID_00000078026011243608344080000015716893182440712615_);" d="M1306.364,2116.528l-44.938-0.441
						l3.232,7.895c-34.578,17.451-59.139,61.549-59.139,113.226c0,50.38,23.336,93.573,56.547,111.88l-0.108,9.362l31.675-0.132
						c1.31,0.073,2.625,0.132,3.95,0.132c50.844,0,92.063-54.282,92.063-121.243
						C1389.644,2174.151,1353.088,2122.354,1306.364,2116.528z"/>
					
						<linearGradient id="SVGID_00000000197732791637601500000012234305933398222739_" gradientUnits="userSpaceOnUse" x1="1815.1682" y1="1520.0997" x2="1580.9918" y2="1825.6442">
						<stop  offset="0" style="stop-color:#09005D"/>
						<stop  offset="1" style="stop-color:#1A0F91"/>
					</linearGradient>
					
						<ellipse style="fill:url(#SVGID_00000000197732791637601500000012234305933398222739_);" cx="1265.56" cy="2237.208" rx="92.063" ry="121.243"/>
					<path style="fill:#BDD0FB;" d="M1335.211,2342.353c-0.881,0-1.753-0.394-2.337-1.148c-0.997-1.289-0.763-3.141,0.522-4.145
						c0.404-0.314,40.347-32.365,36.215-113.2c-4.116-80.543-60.294-98.135-60.862-98.302c-1.564-0.465-2.458-2.109-1.994-3.674
						c0.465-1.564,2.116-2.465,3.674-1.994c0.609,0.18,60.759,18.996,65.087,103.667c4.298,84.143-36.754,116.829-38.504,118.179
						C1336.478,2342.151,1335.843,2342.353,1335.211,2342.353z"/>
				</g>
				
					<linearGradient id="SVGID_00000047749379792613315570000005603805701883497094_" gradientUnits="userSpaceOnUse" x1="4267.5356" y1="2285.77" x2="4261.0669" y2="2327.9233" gradientTransform="matrix(1 0 0 1 -3439.8557 0)">
					<stop  offset="0" style="stop-color:#FEBBBA"/>
					<stop  offset="1" style="stop-color:#FF928E"/>
				</linearGradient>
				<path style="fill:url(#SVGID_00000047749379792613315570000005603805701883497094_);" d="M810.028,2313.406
					c-1.568,0-24.581-35.589-12.792-45.464c11.789-9.875,53.297-13.228,56.519-11.714c3.223,1.514,5.091,57.178,5.091,57.178
					H810.028z"/>
				
					<linearGradient id="SVGID_00000027602748688017634520000008861475135438772925_" gradientUnits="userSpaceOnUse" x1="1255.9972" y1="2204.9644" x2="883.5453" y2="2287.4839">
					<stop  offset="0" style="stop-color:#09005D"/>
					<stop  offset="1" style="stop-color:#1A0F91"/>
				</linearGradient>
				<path style="fill:url(#SVGID_00000027602748688017634520000008861475135438772925_);" d="M709.227,2281.301l3.206-0.287
					l554.682-49.595c0,0,12.35,5.337,0,15.32c-12.35,9.982-541.336,62.532-541.336,62.532L709.227,2281.301z"/>
				
					<linearGradient id="SVGID_00000085217370127148222700000009171482495947292848_" gradientUnits="userSpaceOnUse" x1="4607.9448" y1="2236.8684" x2="4597.2402" y2="2272.55" gradientTransform="matrix(1 0 0 1 -3439.8557 0)">
					<stop  offset="0" style="stop-color:#FEBBBA"/>
					<stop  offset="1" style="stop-color:#FF928E"/>
				</linearGradient>
				<path style="fill:url(#SVGID_00000085217370127148222700000009171482495947292848_);" d="M1179.247,2263.533
					c0,0,4.712-9.245-7.209-9.245c-11.921,0-14.354-3.649-14.354-3.649s9.488-7.299,3.649-7.542s-13.283,0.733-15.814,5.109
					c-2.53,4.376,3.892,15.327,3.892,15.327S1176.238,2269.615,1179.247,2263.533z"/>
				
					<linearGradient id="SVGID_00000058570912849601533370000012047686084427630490_" gradientUnits="userSpaceOnUse" x1="4231.3306" y1="2474.7085" x2="4377.8525" y2="2474.7085" gradientTransform="matrix(1 0 0 1 -3439.8557 0)">
					<stop  offset="0" style="stop-color:#FEBBBA"/>
					<stop  offset="1" style="stop-color:#FF928E"/>
				</linearGradient>
				<path style="fill:url(#SVGID_00000058570912849601533370000012047686084427630490_);" d="M875.716,2363.767l-22.058,44.116
					c0,0-88.232,179.058-54.496,177.761c33.736-1.297,138.835-151.81,138.835-151.81L875.716,2363.767z"/>
				
					<linearGradient id="SVGID_00000112602873955372018190000009598208166343742632_" gradientUnits="userSpaceOnUse" x1="4632.1006" y1="2892.0669" x2="4836.625" y2="2892.0669" gradientTransform="matrix(1 0 0 1 -3439.8557 0)">
					<stop  offset="0" style="stop-color:#FEBBBA"/>
					<stop  offset="1" style="stop-color:#FF928E"/>
				</linearGradient>
				<path style="fill:url(#SVGID_00000112602873955372018190000009598208166343742632_);" d="M1192.245,2683.931
					c9.634,0,181.362-15.052,198.879,19.981c17.516,35.033-11.32,399.507-11.32,399.507h-44.765l-24.686-304.95l-118.108,22.026
					V2683.931z"/>
				
					<linearGradient id="SVGID_00000097499922457065220620000016124614559854359722_" gradientUnits="userSpaceOnUse" x1="4175.4385" y1="2998.9136" x2="4598.4316" y2="2998.9136" gradientTransform="matrix(1 0 0 1 -3439.8557 0)">
					<stop  offset="0" style="stop-color:#FEBBBA"/>
					<stop  offset="1" style="stop-color:#FF928E"/>
				</linearGradient>
				<path style="fill:url(#SVGID_00000097499922457065220620000016124614559854359722_);" d="M1158.576,2881.479
					c0,0-106.397,280.265-131.05,277.67c-24.653-2.595-291.943-49.306-291.943-49.306l6.488-45.413l246.529-5.19l33.736-220.579
					L1158.576,2881.479z"/>
				
					<linearGradient id="SVGID_00000020375206591614010650000018212760074463706275_" gradientUnits="userSpaceOnUse" x1="4434.5977" y1="2858.8533" x2="4621.3325" y2="2858.8533" gradientTransform="matrix(1 0 0 1 -3439.8557 0)">
					<stop  offset="0" style="stop-color:#09005D"/>
					<stop  offset="1" style="stop-color:#1A0F91"/>
				</linearGradient>
				<polygon style="fill:url(#SVGID_00000020375206591614010650000018212760074463706275_);" points="1181.477,2855.869 
					1157.911,2898.509 994.742,2866.453 994.742,2819.198 				"/>
				
					<linearGradient id="SVGID_00000152971368233943809690000010269182641926061480_" gradientUnits="userSpaceOnUse" x1="1838.926" y1="1532.0294" x2="1618.1418" y2="1797.9738">
					<stop  offset="0" style="stop-color:#FF928E"/>
					<stop  offset="1" style="stop-color:#FE7062"/>
				</linearGradient>
				<path style="fill:url(#SVGID_00000152971368233943809690000010269182641926061480_);" d="M1004.17,2219.742
					c0,0,202.414,9.731,216.038,122.616c13.624,112.885-29.194,325.03-29.194,325.03l-208.252-19.463
					c0,0,21.409-214.091-15.57-237.447l-31.789,41.521l-76.554-85.637C858.848,2366.362,934.104,2243.097,1004.17,2219.742z"/>
				
					<linearGradient id="SVGID_00000164508041113997885710000006003549472328514235_" gradientUnits="userSpaceOnUse" x1="4405.8555" y1="2757.1887" x2="4656.186" y2="2757.1887" gradientTransform="matrix(1 0 0 1 -3439.8557 0)">
					<stop  offset="0" style="stop-color:#09005D"/>
					<stop  offset="1" style="stop-color:#1A0F91"/>
				</linearGradient>
				<path style="fill:url(#SVGID_00000164508041113997885710000006003549472328514235_);" d="M982.396,2647.924
					c0,0-67.322,202.414,70.864,216.038c138.186,13.624,163.07-33.087,163.07-33.087v-163.488l-236.481-19.463H982.396z"/>
				
					<linearGradient id="SVGID_00000032638026266177705730000002620690179406610850_" gradientUnits="userSpaceOnUse" x1="-2281.7083" y1="1628.1543" x2="-2617.2524" y2="2244.6836" gradientTransform="matrix(0.9937 -0.112 0.112 0.9937 3280.4331 24.4975)">
					<stop  offset="0" style="stop-color:#FEBBBA"/>
					<stop  offset="1" style="stop-color:#FF928E"/>
				</linearGradient>
				<path style="fill:url(#SVGID_00000032638026266177705730000002620690179406610850_);" d="M1050.806,2093.37l-35.458,124.884
					c0,0,60.592,32.567,105.394,23.766l12.312-110.087L1050.806,2093.37z"/>
				<g>
					
						<linearGradient id="SVGID_00000176764450950412477450000015120552098913756321_" gradientUnits="userSpaceOnUse" x1="-2099.6248" y1="2754.4011" x2="-2247.9307" y2="2950.5979" gradientTransform="matrix(0.876 -0.4822 0.4822 0.876 1626.387 -1403.6779)">
						<stop  offset="0" style="stop-color:#FEBBBA"/>
						<stop  offset="1" style="stop-color:#FF928E"/>
					</linearGradient>
					<path style="fill:url(#SVGID_00000176764450950412477450000015120552098913756321_);" d="M1140.368,2006.831
						c0.943,1.713,21.361,129.358,21.361,129.358l-73.131,10.109l-37.326-118.106
						C1051.271,2028.192,1124.583,1978.157,1140.368,2006.831z"/>
					
						<linearGradient id="SVGID_00000033358067025919131410000018108587172011562385_" gradientUnits="userSpaceOnUse" x1="1011.8839" y1="2026.3417" x2="1167.3187" y2="2026.3417">
						<stop  offset="0" style="stop-color:#09005D"/>
						<stop  offset="1" style="stop-color:#1A0F91"/>
					</linearGradient>
					<path style="fill:url(#SVGID_00000033358067025919131410000018108587172011562385_);" d="M1076.135,2048.282
						c-0.622-2.685-0.015-5.506,1.696-7.672c5.395-6.834,18.473-20.75,33.668-17.887c19.984,3.765,55.218-0.967,55.805-23.574
						c0.588-22.609-15.425-54.786-47.57-48.593c-18.115,3.489-23.155,15.835-24.104,25.946c-0.493,5.263-5.382,9.138-10.567,8.102
						c-3.847-0.768-6.269,0.617-7.797,2.635c-2.68,3.546-7.403,4.794-11.384,2.816c-9.843-4.894-26.314-9.275-40.765,5.057
						c-14.218,14.1-7.602,27.491-0.898,35.376c3.368,3.959,2.806,9.866-1.255,13.112c-19.402,15.508-8.63,31.482-2.752,37.925
						c1.663,1.823,3.978,2.878,6.444,2.935c7.524,0.173,25.322,1.854,31.348,13.574c0.657,1.278,1.415,2.936,2.246,4.87
						c8.607-3.953,17.553-6.5,26.546-8.672L1076.135,2048.282z"/>
					
						<linearGradient id="SVGID_00000094581909479829894460000016720635465679596970_" gradientUnits="userSpaceOnUse" x1="-2316.8337" y1="2909.7739" x2="-2197.8813" y2="2787.7319" gradientTransform="matrix(0.876 -0.4822 0.4822 0.876 1626.387 -1403.6779)">
						<stop  offset="0" style="stop-color:#FEBBBA"/>
						<stop  offset="1" style="stop-color:#FF928E"/>
					</linearGradient>
					<path style="fill:url(#SVGID_00000094581909479829894460000016720635465679596970_);" d="M1063.615,2121.179
						c0,0-0.667-39.437-16.626-43.152s-33.187,7.815-19.55,31.435C1044.401,2138.842,1063.615,2121.179,1063.615,2121.179z"/>
				</g>
				
					<linearGradient id="SVGID_00000079484829511449982730000011814286333325167261_" gradientUnits="userSpaceOnUse" x1="4212.3945" y1="2416.0752" x2="4320.4561" y2="2416.0752" gradientTransform="matrix(1 0 0 1 -3439.8557 0)">
					<stop  offset="0" style="stop-color:#FEBBBA"/>
					<stop  offset="1" style="stop-color:#FF928E"/>
				</linearGradient>
				<path style="fill:url(#SVGID_00000079484829511449982730000011814286333325167261_);" d="M812.528,2580.275
					c0,0,27.504-48.135,32.047-105.567c4.542-57.432,0-160.248,0-160.248s36.979-2.271,36.006-22.707
					c-0.973-20.436-13.3-57.416-21.734-40.872c-8.434,16.543-12.284,29.194-12.284,29.194s-39.942,15.57-38.969,35.033
					C808.569,2334.573,725.012,2627.457,812.528,2580.275z"/>
				<g>
					
						<linearGradient id="SVGID_00000087369886336448518580000018246874856759867789_" gradientUnits="userSpaceOnUse" x1="4075.865" y1="2318.2917" x2="4041.9424" y2="2539.3372" gradientTransform="matrix(1 0 0 1 -3439.8557 0)">
						<stop  offset="0" style="stop-color:#09005D"/>
						<stop  offset="1" style="stop-color:#1A0F91"/>
					</linearGradient>
					<path style="fill:url(#SVGID_00000087369886336448518580000018246874856759867789_);" d="M648.551,2143.944l-55.365-0.596
						l3.982,10.671c-42.601,23.589-72.86,83.197-72.86,153.049c0,68.1,28.75,126.485,69.666,151.231l-0.133,12.655l39.024-0.178
						c1.614,0.099,3.234,0.178,4.866,0.178c62.64,0,113.422-73.374,113.422-163.886
						C751.153,2221.833,706.115,2151.819,648.551,2143.944z"/>
					
						<linearGradient id="SVGID_00000067935586764031449220000012711594389764950712_" gradientUnits="userSpaceOnUse" x1="300.4016" y1="1026.1951" x2="350.5798" y2="1241.9613">
						<stop  offset="0" style="stop-color:#09005D"/>
						<stop  offset="1" style="stop-color:#1A0F91"/>
					</linearGradient>
					
						<ellipse style="fill:url(#SVGID_00000067935586764031449220000012711594389764950712_);" cx="598.279" cy="2307.069" rx="113.422" ry="163.886"/>
					<path style="fill:#BDD0FB;" d="M684.088,2448.155c-0.837,0-1.67-0.356-2.253-1.045c-1.055-1.24-0.904-3.106,0.337-4.164
						c0.503-0.426,50.111-44.024,44.989-153.983c-5.106-109.649-74.847-133.607-75.549-133.834
						c-1.555-0.507-2.401-2.173-1.898-3.725c0.506-1.552,2.173-2.385,3.725-1.898c0.744,0.244,74.331,25.5,79.627,139.181
						c5.267,113.111-44.931,156.958-47.069,158.769C685.441,2447.924,684.761,2448.155,684.088,2448.155z"/>
				</g>
				
					<linearGradient id="SVGID_00000017517905481357995400000013456738979809744317_" gradientUnits="userSpaceOnUse" x1="553.5266" y1="2260.2368" x2="687.3412" y2="1881.0945">
					<stop  offset="0" style="stop-color:#09005D"/>
					<stop  offset="1" style="stop-color:#1A0F91"/>
				</linearGradient>
				<path style="fill:url(#SVGID_00000017517905481357995400000013456738979809744317_);" d="M585.719,2298.566
					c0,0,19.463,5.245,11.678,16.084c-7.785,10.839-27.248,10.839-27.248,10.839l-92.773,8.434c0,0-16.219-19.463,0-24.653
					C493.595,2304.081,585.719,2298.566,585.719,2298.566z"/>
				
					<linearGradient id="SVGID_00000030487156073580220780000015164053380715292043_" gradientUnits="userSpaceOnUse" x1="4268.3452" y1="2262.2393" x2="4264.9263" y2="2284.519" gradientTransform="matrix(1 0 0 1 -3439.8557 0)">
					<stop  offset="0" style="stop-color:#FEBBBA"/>
					<stop  offset="1" style="stop-color:#FF928E"/>
				</linearGradient>
				<path style="fill:url(#SVGID_00000030487156073580220780000015164053380715292043_);" d="M858.848,2267.153
					c0,0-1.297-23.585-23.031-20.414c-21.733,3.17-48.817,19.644-36.086,26.004C812.461,2279.103,850.738,2275.639,858.848,2267.153
					z"/>
				
					<linearGradient id="SVGID_00000125566380103525934490000011675986430238208158_" gradientUnits="userSpaceOnUse" x1="4124.0078" y1="3124.3625" x2="4199.5869" y2="3124.3625" gradientTransform="matrix(1 0 0 1 -3439.8557 0)">
					<stop  offset="0" style="stop-color:#09005D"/>
					<stop  offset="1" style="stop-color:#1A0F91"/>
				</linearGradient>
				<path style="fill:url(#SVGID_00000125566380103525934490000011675986430238208158_);" d="M734.616,3109.843
					c0,0,2.754-40.548,6.971-45.413c-11.354-14.597-26.682-31.141-45.171-23.355c-18.49,7.785-10.584,162.515-10.584,162.515
					s69.643,13.624,73.536,0c3.892-13.624-24.752-26.275-24.752-26.275V3109.843z"/>
				
					<linearGradient id="SVGID_00000104687613523577337940000010975586310512753086_" gradientUnits="userSpaceOnUse" x1="4766.4609" y1="3183.4377" x2="4941.6377" y2="3183.4377" gradientTransform="matrix(1 0 0 1 -3439.8557 0)">
					<stop  offset="0" style="stop-color:#09005D"/>
					<stop  offset="1" style="stop-color:#1A0F91"/>
				</linearGradient>
				<path style="fill:url(#SVGID_00000104687613523577337940000010975586310512753086_);" d="M1332.113,3165.138
					c0,0-12.394,43.042,0,42.858c12.394-0.183,169.384,3.948,169.384,3.948s7.436-48.168-53.707-46.806
					c-61.143,1.362-62.796-10.206-62.796-10.206S1340.376,3170.386,1332.113,3165.138z"/>
				<path style="fill:#BDD0FB;" d="M834.882,3062.483l-7.667,63.254l-13.624-2.374l-4.904-0.818l-2.804-0.505l-4.866-0.857
					l-65.434-11.328c0,0-4.554-39.587,6.5-45.426l63.294-1.324l3.347-0.077l4.476-0.078l3.309-0.078L834.882,3062.483z"/>
				<g>
					
						<linearGradient id="SVGID_00000107555174764163700090000014253108690329982356_" gradientUnits="userSpaceOnUse" x1="4240.873" y1="3092.5342" x2="4248.5801" y2="3092.5342" gradientTransform="matrix(1 0 0 1 -3439.8557 0)">
						<stop  offset="0" style="stop-color:#09005D"/>
						<stop  offset="1" style="stop-color:#1A0F91"/>
					</linearGradient>
					<polygon style="fill:url(#SVGID_00000107555174764163700090000014253108690329982356_);" points="808.724,3063.029 
						805.883,3122.04 801.017,3121.183 805.377,3063.106 					"/>
					
						<linearGradient id="SVGID_00000098183521424341744920000000975168319902258332_" gradientUnits="userSpaceOnUse" x1="4248.542" y1="3093.1179" x2="4256.3652" y2="3093.1179" gradientTransform="matrix(1 0 0 1 -3439.8557 0)">
						<stop  offset="0" style="stop-color:#09005D"/>
						<stop  offset="1" style="stop-color:#1A0F91"/>
					</linearGradient>
					<polygon style="fill:url(#SVGID_00000098183521424341744920000000975168319902258332_);" points="816.51,3062.872 
						813.59,3123.363 808.686,3122.545 813.201,3062.95 					"/>
				</g>
				<g>
					<path style="fill:#BDD0FB;" d="M1384.994,3154.944c0,0-38.74,24.26-53.515,12.559l1.831-53.841l0.179-4.699l0.088-3.191
						l0.178-4.669l0.325-9.781l48.64-2.866l0.267,7.772l0.117,3.576l0.149,4.255l0.118,3.546L1384.994,3154.944z"/>
					<g>
						
							<linearGradient id="SVGID_00000029741046419117625620000002805581410127953539_" gradientUnits="userSpaceOnUse" x1="4773.4326" y1="3101" x2="4822.9585" y2="3101" gradientTransform="matrix(1 0 0 1 -3439.8557 0)">
							<stop  offset="0" style="stop-color:#09005D"/>
							<stop  offset="1" style="stop-color:#1A0F91"/>
						</linearGradient>
						<polygon style="fill:url(#SVGID_00000029741046419117625620000002805581410127953539_);" points="1383.103,3099.804 
							1333.577,3105.772 1333.755,3101.104 1382.986,3096.228 						"/>
						
							<linearGradient id="SVGID_00000113326522994489265770000013560693393351682483_" gradientUnits="userSpaceOnUse" x1="4773.166" y1="3108.8606" x2="4823.2256" y2="3108.8606" gradientTransform="matrix(1 0 0 1 -3439.8557 0)">
							<stop  offset="0" style="stop-color:#09005D"/>
							<stop  offset="1" style="stop-color:#1A0F91"/>
						</linearGradient>
						<polygon style="fill:url(#SVGID_00000113326522994489265770000013560693393351682483_);" points="1383.37,3107.604 
							1333.31,3113.663 1333.489,3108.964 1383.251,3104.059 						"/>
					</g>
				</g>
				
					<linearGradient id="SVGID_00000082335546925225615950000006966266022737492647_" gradientUnits="userSpaceOnUse" x1="4606.0479" y1="2236.2993" x2="4595.3433" y2="2271.9814" gradientTransform="matrix(1 0 0 1 -3439.8557 0)">
					<stop  offset="0" style="stop-color:#FEBBBA"/>
					<stop  offset="1" style="stop-color:#FF928E"/>
				</linearGradient>
				<path style="fill:url(#SVGID_00000082335546925225615950000006966266022737492647_);" d="M1147.207,2246.271
					c0,0,1.864-4.297-2.278-3.927c-3.545-6.383,13.647-6.708,26.946-8.005c13.3-1.297,16.219,8.839,10.056,10.907
					C1175.768,2247.314,1152.705,2251.391,1147.207,2246.271z"/>
				<g>
					
						<linearGradient id="SVGID_00000121274936790439853270000004972878036581240468_" gradientUnits="userSpaceOnUse" x1="4596.5762" y1="2251.7505" x2="4595.9272" y2="2238.1267" gradientTransform="matrix(1 0 0 1 -3439.8557 0)">
						<stop  offset="0" style="stop-color:#FEBBBA"/>
						<stop  offset="1" style="stop-color:#FF928E"/>
					</linearGradient>
					<path style="fill:url(#SVGID_00000121274936790439853270000004972878036581240468_);" d="M1157.684,2251.612
						c-0.35,0-0.688-0.188-0.859-0.519c-0.251-0.475-0.068-1.064,0.407-1.315c2.866-1.515,5.907-3.896,5.858-5.029
						c-0.011-0.352-0.585-0.646-0.924-0.79c-4.797-2.03-12.906,2.11-12.985,2.153c-0.483,0.245-1.068,0.061-1.311-0.418
						c-0.247-0.477-0.061-1.064,0.414-1.312c0.369-0.188,9.009-4.607,14.643-2.214c1.688,0.714,2.079,1.754,2.11,2.499
						c0.126,2.976-5.725,6.213-6.899,6.833C1157.991,2251.576,1157.836,2251.612,1157.684,2251.612z"/>
				</g>
			</g>
			<path style="fill:#666694;" d="M1124.94,2865.675c-54.336,0-107.927-15.979-108.668-16.204c-1.17-0.356-1.83-1.593-1.478-2.763
				c0.359-1.17,1.612-1.833,2.763-1.481c1.003,0.301,101.251,30.179,165.244,7.626c1.148-0.414,2.417,0.199,2.827,1.353
				c0.407,1.154-0.199,2.42-1.353,2.827C1166.294,2863.37,1145.561,2865.675,1124.94,2865.675z"/>
			<path style="fill:#FFFFFF;" d="M1058.828,2085.059l91.998-18.4c7.732,34.678,13.237,67.071,12.721,93.276
				c-0.063,3.173-2.031,5.987-4.905,7.333c-46.054,21.585-76.253,0.094-97.306-46.247
				C1063.389,2108.576,1064.327,2097.177,1058.828,2085.059z"/>
		</g>
		<g>
			
				<linearGradient id="SVGID_00000050646761138600024720000005035901423267854987_" gradientUnits="userSpaceOnUse" x1="2496.6194" y1="2397.447" x2="3188.7505" y2="2397.447">
				<stop  offset="0" style="stop-color:#09005D"/>
				<stop  offset="1" style="stop-color:#1A0F91"/>
			</linearGradient>
			<path style="fill:url(#SVGID_00000050646761138600024720000005035901423267854987_);" d="M2607.974,2587.5
				c0,0-166.866-215.179-92.064-301.489c74.802-86.31,535.123-96.082,618.556-55.803c83.434,40.278,60.418,166.296,0,238.221
				c-60.417,71.925-103.571,114.795-103.571,114.795l-43.156-80.699c0,0,123.711-126.659,86.31-164.06
				c-37.401-37.401-411.411-63.33-431.551-11.544c-20.139,51.786,56.803,209.611,56.803,209.611l-76.942,50.969H2607.974z"/>
			
				<linearGradient id="SVGID_00000034059672604002545480000002176501180557715854_" gradientUnits="userSpaceOnUse" x1="2758.4463" y1="3517.8555" x2="2828.7063" y2="3005.9617">
				<stop  offset="0" style="stop-color:#09005D"/>
				<stop  offset="1" style="stop-color:#1A0F91"/>
			</linearGradient>
			
				<circle style="fill:url(#SVGID_00000034059672604002545480000002176501180557715854_);" cx="2853.807" cy="2823.09" r="386.026"/>
			<circle style="opacity:0.4;fill:#FFFFFF;" cx="3024.628" cy="2655.017" r="82.05"/>
		</g>
		<g>
			
				<linearGradient id="SVGID_00000089539995706036134660000017001870272615116980_" gradientUnits="userSpaceOnUse" x1="2444.0237" y1="2297.969" x2="2430.3105" y2="2542.5208">
				<stop  offset="0" style="stop-color:#FF928E"/>
				<stop  offset="1" style="stop-color:#FE7062"/>
			</linearGradient>
			<path style="fill:url(#SVGID_00000089539995706036134660000017001870272615116980_);" d="M2712.142,3111.167l-618.104,3.614
				c-9.088,0.053-16.567-7.339-16.62-16.427l-0.707-120.928c-0.053-9.088,7.339-16.567,16.427-16.62l618.105-3.614
				c9.088-0.053,16.567,7.339,16.62,16.427l0.707,120.928C2728.622,3103.635,2721.229,3111.114,2712.142,3111.167z"/>
			<defs>
				<filter id="Adobe_OpacityMaskFilter" filterUnits="userSpaceOnUse" x="2076.667" y="2960.519" width="651.31" height="42.233">
					<feFlood  style="flood-color:white;flood-opacity:1" result="back"/>
					<feBlend  in="SourceGraphic" in2="back" mode="normal"/>
				</filter>
			</defs>
			
				<mask maskUnits="userSpaceOnUse" x="2076.667" y="2960.519" width="651.31" height="42.233" id="SVGID_00000083085190602426010080000001015226961565938863_">
				<g style="filter:url(#Adobe_OpacityMaskFilter);">
					<defs>
						
							<filter id="Adobe_OpacityMaskFilter_00000121254325657860115780000014385181880549095604_" filterUnits="userSpaceOnUse" x="2076.667" y="2960.519" width="651.31" height="42.233">
							<feFlood  style="flood-color:white;flood-opacity:1" result="back"/>
							<feBlend  in="SourceGraphic" in2="back" mode="normal"/>
						</filter>
					</defs>
					
						<mask maskUnits="userSpaceOnUse" x="2076.667" y="2960.519" width="651.31" height="42.233" id="SVGID_00000083085190602426010080000001015226961565938863_">
						<g style="filter:url(#Adobe_OpacityMaskFilter_00000121254325657860115780000014385181880549095604_);">
						</g>
					</mask>
					
						<linearGradient id="SVGID_00000053519251597192654370000017504628118469375134_" gradientUnits="userSpaceOnUse" x1="1329.9434" y1="1285.3572" x2="1981.0963" y2="1285.3572" gradientTransform="matrix(1 -0.0058 0.0058 1 739.3467 1705.8807)">
						<stop  offset="0" style="stop-color:#1A1A1A"/>
						<stop  offset="0.7667" style="stop-color:#686868"/>
						<stop  offset="0.9704" style="stop-color:#808080"/>
						<stop  offset="0.9974" style="stop-color:#808080"/>
					</linearGradient>
					
						<path style="mask:url(#SVGID_00000083085190602426010080000001015226961565938863_);fill:url(#SVGID_00000053519251597192654370000017504628118469375134_);" d="
						M2722.257,2999.013l-639.645,3.74c-3.164,0.019-5.769-2.555-5.787-5.719l-0.158-26.987c-0.019-3.164,2.555-5.769,5.719-5.787
						l639.645-3.74c3.164-0.019,5.768,2.555,5.787,5.719l0.158,26.987C2727.995,2996.39,2725.421,2998.994,2722.257,2999.013z"/>
				</g>
			</mask>
			
				<linearGradient id="SVGID_00000064354407249467418670000015498839376231027602_" gradientUnits="userSpaceOnUse" x1="1329.9434" y1="1285.3572" x2="1981.0963" y2="1285.3572" gradientTransform="matrix(1 -0.0058 0.0058 1 739.3467 1705.8807)">
				<stop  offset="0" style="stop-color:#FFFFFF"/>
				<stop  offset="0.7667" style="stop-color:#FFFFFF"/>
				<stop  offset="0.9704" style="stop-color:#FFFFFF"/>
				<stop  offset="0.9974" style="stop-color:#FFFFFF"/>
			</linearGradient>
			<path style="opacity:0.37;fill:url(#SVGID_00000064354407249467418670000015498839376231027602_);" d="M2722.257,2999.013
				l-639.645,3.74c-3.164,0.019-5.769-2.555-5.787-5.719l-0.158-26.987c-0.019-3.164,2.555-5.769,5.719-5.787l639.645-3.74
				c3.164-0.019,5.768,2.555,5.787,5.719l0.158,26.987C2727.995,2996.39,2725.421,2998.994,2722.257,2999.013z"/>
			<g>
				
					<linearGradient id="SVGID_00000008113101150041362910000003848047816550712255_" gradientUnits="userSpaceOnUse" x1="1891.3656" y1="2855.3076" x2="2154.0393" y2="3325.9314">
					<stop  offset="0" style="stop-color:#FF928E"/>
					<stop  offset="1" style="stop-color:#FE7062"/>
				</linearGradient>
				<polygon style="fill:url(#SVGID_00000008113101150041362910000003848047816550712255_);" points="1884.11,2893.417 
					1948.618,2831.915 2033.443,2831.419 2096.171,2892.178 2097.819,3174.094 2033.303,3234.35 1942.242,3234.882 
					1885.758,3175.334 				"/>
				<polygon style="opacity:0.37;fill:#FFFFFF;" points="2033.303,3234.35 2033.443,2831.419 2096.171,2892.178 2097.819,3174.094 
									"/>
				<defs>
					
						<filter id="Adobe_OpacityMaskFilter_00000101075240468281625840000006706719560215141296_" filterUnits="userSpaceOnUse" x="1884.11" y="2831.419" width="212.061" height="61.999">
						<feFlood  style="flood-color:white;flood-opacity:1" result="back"/>
						<feBlend  in="SourceGraphic" in2="back" mode="normal"/>
					</filter>
				</defs>
				
					<mask maskUnits="userSpaceOnUse" x="1884.11" y="2831.419" width="212.061" height="61.999" id="SVGID_00000146486654258536680310000004876229604610594490_">
					<g style="filter:url(#Adobe_OpacityMaskFilter_00000101075240468281625840000006706719560215141296_);">
						<defs>
							
								<filter id="Adobe_OpacityMaskFilter_00000145748579187658832410000006147106696119723689_" filterUnits="userSpaceOnUse" x="1884.11" y="2831.419" width="212.061" height="61.999">
								<feFlood  style="flood-color:white;flood-opacity:1" result="back"/>
								<feBlend  in="SourceGraphic" in2="back" mode="normal"/>
							</filter>
						</defs>
						
							<mask maskUnits="userSpaceOnUse" x="1884.11" y="2831.419" width="212.061" height="61.999" id="SVGID_00000146486654258536680310000004876229604610594490_">
							<g style="filter:url(#Adobe_OpacityMaskFilter_00000145748579187658832410000006147106696119723689_);">
							</g>
						</mask>
						
							<linearGradient id="SVGID_00000165204862972332774720000013977565387014591647_" gradientUnits="userSpaceOnUse" x1="1295.3181" y1="1051.7627" x2="1243.3508" y2="1195.562" gradientTransform="matrix(1 -0.0058 0.0058 1 739.3467 1705.8807)">
							<stop  offset="0" style="stop-color:#1A1A1A"/>
							<stop  offset="0.7667" style="stop-color:#686868"/>
							<stop  offset="0.9704" style="stop-color:#808080"/>
							<stop  offset="0.9974" style="stop-color:#808080"/>
						</linearGradient>
						
							<polygon style="mask:url(#SVGID_00000146486654258536680310000004876229604610594490_);fill:url(#SVGID_00000165204862972332774720000013977565387014591647_);" points="
							1884.11,2893.417 1948.618,2831.915 2033.443,2831.419 2096.171,2892.178 						"/>
					</g>
				</mask>
				
					<linearGradient id="SVGID_00000175317363489151601360000017766043392068322202_" gradientUnits="userSpaceOnUse" x1="1295.3181" y1="1051.7627" x2="1243.3508" y2="1195.562" gradientTransform="matrix(1 -0.0058 0.0058 1 739.3467 1705.8807)">
					<stop  offset="0" style="stop-color:#FFFFFF"/>
					<stop  offset="0.7667" style="stop-color:#FFFFFF"/>
					<stop  offset="0.9704" style="stop-color:#FFFFFF"/>
					<stop  offset="0.9974" style="stop-color:#FFFFFF"/>
				</linearGradient>
				<polygon style="opacity:0.37;fill:url(#SVGID_00000175317363489151601360000017766043392068322202_);" points="
					1884.11,2893.417 1948.618,2831.915 2033.443,2831.419 2096.171,2892.178 				"/>
				<defs>
					
						<filter id="Adobe_OpacityMaskFilter_00000006681377595710324110000010521122857944149182_" filterUnits="userSpaceOnUse" x="1885.758" y="3174.094" width="212.061" height="60.788">
						<feFlood  style="flood-color:white;flood-opacity:1" result="back"/>
						<feBlend  in="SourceGraphic" in2="back" mode="normal"/>
					</filter>
				</defs>
				
					<mask maskUnits="userSpaceOnUse" x="1885.758" y="3174.094" width="212.061" height="60.788" id="SVGID_00000093855652196619779570000016719046471436637854_">
					<g style="filter:url(#Adobe_OpacityMaskFilter_00000006681377595710324110000010521122857944149182_);">
						<defs>
							
								<filter id="Adobe_OpacityMaskFilter_00000024707460054933367890000007207734041653795252_" filterUnits="userSpaceOnUse" x="1885.758" y="3174.094" width="212.061" height="60.788">
								<feFlood  style="flood-color:white;flood-opacity:1" result="back"/>
								<feBlend  in="SourceGraphic" in2="back" mode="normal"/>
							</filter>
						</defs>
						
							<mask maskUnits="userSpaceOnUse" x="1885.758" y="3174.094" width="212.061" height="60.788" id="SVGID_00000093855652196619779570000016719046471436637854_">
							<g style="filter:url(#Adobe_OpacityMaskFilter_00000024707460054933367890000007207734041653795252_);">
							</g>
						</mask>
						
							<linearGradient id="SVGID_00000026132225366237761390000013121502353852245689_" gradientUnits="userSpaceOnUse" x1="1304.9386" y1="1457.8682" x2="1177.7051" y2="1523.3558" gradientTransform="matrix(1 -0.0058 0.0058 1 739.3467 1705.8807)">
							<stop  offset="0" style="stop-color:#1A1A1A"/>
							<stop  offset="0.7667" style="stop-color:#686868"/>
							<stop  offset="0.9704" style="stop-color:#808080"/>
							<stop  offset="0.9974" style="stop-color:#808080"/>
						</linearGradient>
						
							<polygon style="mask:url(#SVGID_00000093855652196619779570000016719046471436637854_);fill:url(#SVGID_00000026132225366237761390000013121502353852245689_);" points="
							1885.758,3175.334 1942.242,3234.882 2033.303,3234.35 2097.819,3174.094 						"/>
					</g>
				</mask>
				
					<linearGradient id="SVGID_00000157297831768001160840000004883371103694418319_" gradientUnits="userSpaceOnUse" x1="1304.9386" y1="1457.8682" x2="1177.7051" y2="1523.3558" gradientTransform="matrix(1 -0.0058 0.0058 1 739.3467 1705.8807)">
					<stop  offset="0" style="stop-color:#FFFFFF"/>
					<stop  offset="0.7667" style="stop-color:#FFFFFF"/>
					<stop  offset="0.9704" style="stop-color:#FFFFFF"/>
					<stop  offset="0.9974" style="stop-color:#FFFFFF"/>
				</linearGradient>
				<polygon style="opacity:0.37;fill:url(#SVGID_00000157297831768001160840000004883371103694418319_);" points="
					1885.758,3175.334 1942.242,3234.882 2033.303,3234.35 2097.819,3174.094 				"/>
			</g>
			<g>
				
					<linearGradient id="SVGID_00000118365942454733368120000005132725165727502752_" gradientUnits="userSpaceOnUse" x1="1250.1324" y1="1495.0178" x2="2251.739" y2="2084.4253" gradientTransform="matrix(0.8847 0.4662 -0.4662 0.8847 2100.0955 752.5351)">
					<stop  offset="0" style="stop-color:#FF928E"/>
					<stop  offset="1" style="stop-color:#FE7062"/>
				</linearGradient>
				<polygon style="fill:url(#SVGID_00000118365942454733368120000005132725165727502752_);" points="2842.108,2884.698 
					2776.885,2823.954 2692.061,2824.45 2630.047,2885.938 2631.695,3167.854 2696.911,3227.351 2787.972,3226.819 
					2843.756,3166.615 				"/>
				<polygon style="opacity:0.37;fill:#FFFFFF;" points="2696.911,3227.351 2692.061,2824.45 2630.047,2885.938 2631.695,3167.854 
									"/>
				<defs>
					
						<filter id="Adobe_OpacityMaskFilter_00000085243793044487033300000008831614236832024715_" filterUnits="userSpaceOnUse" x="2630.047" y="2823.954" width="212.061" height="61.984">
						<feFlood  style="flood-color:white;flood-opacity:1" result="back"/>
						<feBlend  in="SourceGraphic" in2="back" mode="normal"/>
					</filter>
				</defs>
				
					<mask maskUnits="userSpaceOnUse" x="2630.047" y="2823.954" width="212.061" height="61.984" id="SVGID_00000091702354265272813790000013577621445174219192_">
					<g style="filter:url(#Adobe_OpacityMaskFilter_00000085243793044487033300000008831614236832024715_);">
						<defs>
							
								<filter id="Adobe_OpacityMaskFilter_00000049219594490693950160000016977547096462723491_" filterUnits="userSpaceOnUse" x="2630.047" y="2823.954" width="212.061" height="61.984">
								<feFlood  style="flood-color:white;flood-opacity:1" result="back"/>
								<feBlend  in="SourceGraphic" in2="back" mode="normal"/>
							</filter>
						</defs>
						
							<mask maskUnits="userSpaceOnUse" x="2630.047" y="2823.954" width="212.061" height="61.984" id="SVGID_00000091702354265272813790000013577621445174219192_">
							<g style="filter:url(#Adobe_OpacityMaskFilter_00000049219594490693950160000016977547096462723491_);">
							</g>
						</mask>
						
							<linearGradient id="SVGID_00000107565235306859479470000006282548038739173550_" gradientUnits="userSpaceOnUse" x1="947.3619" y1="1049.3379" x2="895.4" y2="1193.1227" gradientTransform="matrix(-1 0.0058 0.0058 1 3625.0808 1688.4244)">
							<stop  offset="0" style="stop-color:#1A1A1A"/>
							<stop  offset="0.7667" style="stop-color:#686868"/>
							<stop  offset="0.9704" style="stop-color:#808080"/>
							<stop  offset="0.9974" style="stop-color:#808080"/>
						</linearGradient>
						
							<polygon style="mask:url(#SVGID_00000091702354265272813790000013577621445174219192_);fill:url(#SVGID_00000107565235306859479470000006282548038739173550_);" points="
							2842.108,2884.698 2776.885,2823.954 2692.061,2824.45 2630.047,2885.938 						"/>
					</g>
				</mask>
				
					<linearGradient id="SVGID_00000017491384797320715870000014188632176900687016_" gradientUnits="userSpaceOnUse" x1="947.3619" y1="1049.3379" x2="895.4" y2="1193.1227" gradientTransform="matrix(-1 0.0058 0.0058 1 3625.0808 1688.4244)">
					<stop  offset="0" style="stop-color:#FFFFFF"/>
					<stop  offset="0.7667" style="stop-color:#FFFFFF"/>
					<stop  offset="0.9704" style="stop-color:#FFFFFF"/>
					<stop  offset="0.9974" style="stop-color:#FFFFFF"/>
				</linearGradient>
				<polygon style="opacity:0.37;fill:url(#SVGID_00000017491384797320715870000014188632176900687016_);" points="
					2842.108,2884.698 2776.885,2823.954 2692.061,2824.45 2630.047,2885.938 				"/>
				<defs>
					
						<filter id="Adobe_OpacityMaskFilter_00000114038299254284077570000003235667806567171243_" filterUnits="userSpaceOnUse" x="2631.695" y="3166.615" width="212.061" height="60.737">
						<feFlood  style="flood-color:white;flood-opacity:1" result="back"/>
						<feBlend  in="SourceGraphic" in2="back" mode="normal"/>
					</filter>
				</defs>
				
					<mask maskUnits="userSpaceOnUse" x="2631.695" y="3166.615" width="212.061" height="60.737" id="SVGID_00000031928081139743088670000004118412507395472830_">
					<g style="filter:url(#Adobe_OpacityMaskFilter_00000114038299254284077570000003235667806567171243_);">
						<defs>
							
								<filter id="Adobe_OpacityMaskFilter_00000093174338355654138440000003367639977282911672_" filterUnits="userSpaceOnUse" x="2631.695" y="3166.615" width="212.061" height="60.737">
								<feFlood  style="flood-color:white;flood-opacity:1" result="back"/>
								<feBlend  in="SourceGraphic" in2="back" mode="normal"/>
							</filter>
						</defs>
						
							<mask maskUnits="userSpaceOnUse" x="2631.695" y="3166.615" width="212.061" height="60.737" id="SVGID_00000031928081139743088670000004118412507395472830_">
							<g style="filter:url(#Adobe_OpacityMaskFilter_00000093174338355654138440000003367639977282911672_);">
							</g>
						</mask>
						
							<linearGradient id="SVGID_00000021102237184282384200000009857371884543794842_" gradientUnits="userSpaceOnUse" x1="956.9553" y1="1455.432" x2="829.728" y2="1520.9165" gradientTransform="matrix(-1 0.0058 0.0058 1 3625.0808 1688.4244)">
							<stop  offset="0" style="stop-color:#1A1A1A"/>
							<stop  offset="0.7667" style="stop-color:#686868"/>
							<stop  offset="0.9704" style="stop-color:#808080"/>
							<stop  offset="0.9974" style="stop-color:#808080"/>
						</linearGradient>
						
							<polygon style="mask:url(#SVGID_00000031928081139743088670000004118412507395472830_);fill:url(#SVGID_00000021102237184282384200000009857371884543794842_);" points="
							2843.756,3166.615 2787.972,3226.819 2696.911,3227.351 2631.695,3167.854 						"/>
					</g>
				</mask>
				
					<linearGradient id="SVGID_00000001623514197644465700000002459739749427933098_" gradientUnits="userSpaceOnUse" x1="956.9553" y1="1455.432" x2="829.728" y2="1520.9165" gradientTransform="matrix(-1 0.0058 0.0058 1 3625.0808 1688.4244)">
					<stop  offset="0" style="stop-color:#FFFFFF"/>
					<stop  offset="0.7667" style="stop-color:#FFFFFF"/>
					<stop  offset="0.9704" style="stop-color:#FFFFFF"/>
					<stop  offset="0.9974" style="stop-color:#FFFFFF"/>
				</linearGradient>
				<polygon style="opacity:0.37;fill:url(#SVGID_00000001623514197644465700000002459739749427933098_);" points="
					2843.756,3166.615 2787.972,3226.819 2696.911,3227.351 2631.695,3167.854 				"/>
			</g>
		</g>
		<g>
			<g>
				<g style="opacity:0.64;">
					<path style="fill:#FFFFFF;" d="M2255.819,944.698c-1.646-2.213-1.718-5.329,0.025-7.641c2.081-2.762,4.204-5.499,6.37-8.206
						c2.201-2.749,6.215-3.192,8.964-0.99c2.742,2.183,3.19,6.211,0.992,8.965c-2.089,2.607-4.135,5.243-6.139,7.904
						c-2.118,2.814-6.117,3.377-8.931,1.257C2256.603,945.612,2256.175,945.176,2255.819,944.698z"/>
					<path style="fill:#FFFFFF;" d="M2284.444,911.265c-1.835-2.466-1.663-5.966,0.547-8.243
						c4.907-5.054,10.026-10.026,15.216-14.772c2.599-2.377,6.633-2.196,9.009,0.402c2.398,2.609,2.198,6.636-0.402,9.011
						c-5.004,4.577-9.94,9.369-14.672,14.243c-2.453,2.526-6.491,2.587-9.017,0.135
						C2284.874,911.797,2284.646,911.537,2284.444,911.265z M2325.417,875.136c-2.091-2.81-1.524-6.786,1.276-8.898l1.848-1.384
						c5.003-3.721,10.198-7.381,15.44-10.88c2.931-1.953,6.876-1.224,8.844,1.766c1.954,2.93,1.165,6.889-1.765,8.844
						c-5.064,3.376-10.079,6.911-14.907,10.503l-1.78,1.334c-2.813,2.12-6.81,1.561-8.932-1.251
						C2325.433,875.158,2325.424,875.146,2325.417,875.136z M2371.401,845.67c-0.183-0.246-0.351-0.509-0.501-0.788
						c-1.67-3.101-0.511-6.969,2.59-8.639c6.208-3.345,12.583-6.541,18.946-9.502c3.195-1.486,6.985-0.092,8.472,3.092
						c1.486,3.195,0.102,6.988-3.092,8.473c-6.138,2.856-12.288,5.94-18.277,9.166
						C2376.718,848.992,2373.26,848.169,2371.401,845.67z M2421.323,823.539c-0.373-0.502-0.677-1.064-0.896-1.683
						c-1.174-3.321,0.567-6.963,3.887-8.138c6.618-2.34,13.411-4.518,20.184-6.473c3.388-0.977,6.918,0.982,7.896,4.356
						c0.976,3.384-0.975,6.919-4.358,7.895c-6.535,1.887-13.086,3.988-19.47,6.247
						C2425.863,826.698,2422.948,825.724,2421.323,823.539z M2474.062,809.369c-0.561-0.753-0.963-1.646-1.148-2.633
						c-0.647-3.462,1.635-6.792,5.097-7.439c6.922-1.293,13.978-2.397,20.97-3.283c3.497-0.441,6.685,2.029,7.128,5.527
						c0.442,3.493-2.032,6.684-5.525,7.128c-6.747,0.853-13.552,1.919-20.228,3.166
						C2477.878,812.298,2475.469,811.262,2474.062,809.369z M2528.395,803.513c-0.752-1.011-1.213-2.255-1.254-3.609
						c-0.108-3.521,2.661-6.46,6.181-6.566c7.048-0.214,14.185-0.219,21.212-0.017c3.518,0.099,6.29,3.03,6.191,6.555
						c-0.101,3.521-3.037,6.293-6.557,6.191c-6.778-0.193-13.662-0.188-20.461,0.017
						C2531.542,806.152,2529.596,805.128,2528.395,803.513z M2582.97,806.067c-0.946-1.271-1.422-2.895-1.212-4.591
						c0.433-3.495,3.618-5.977,7.114-5.543c6.99,0.867,14.041,1.952,20.956,3.226c3.466,0.638,5.752,3.961,5.117,7.426
						c-0.639,3.462-3.963,5.755-7.427,5.115c-6.669-1.227-13.471-2.274-20.216-3.112
						C2585.504,808.368,2583.972,807.414,2582.97,806.067z M2636.507,816.926c-1.143-1.537-1.585-3.568-1.021-5.552
						c0.961-3.388,4.488-5.354,7.876-4.393c6.771,1.924,13.57,4.069,20.205,6.377c3.324,1.154,5.087,4.791,3.928,8.118
						c-1.158,3.327-4.792,5.086-8.119,3.928c-6.403-2.228-12.962-4.297-19.497-6.152
						C2638.475,818.853,2637.316,818.014,2636.507,816.926z M2687.747,835.815c-1.345-1.809-1.688-4.277-0.682-6.469
						c1.469-3.201,5.254-4.607,8.455-3.138c6.387,2.93,12.774,6.089,18.983,9.388c3.114,1.652,4.291,5.514,2.64,8.624
						c-1.653,3.111-5.515,4.292-8.624,2.64c-5.991-3.184-12.154-6.231-18.316-9.058
						C2689.196,837.339,2688.365,836.646,2687.747,835.815z M2890.16,1102.708c-0.595-0.799-1.012-1.753-1.179-2.805
						c-1.061-6.699-2.337-13.461-3.794-20.096c-0.755-3.44,1.421-6.841,4.861-7.596c3.441-0.756,6.842,1.421,7.597,4.861
						c1.51,6.88,2.834,13.891,3.935,20.836c0.55,3.478-1.823,6.746-5.302,7.297
						C2893.852,1105.588,2891.531,1104.551,2890.16,1102.708z M2735.469,862.319c-1.557-2.092-1.724-5.02-0.201-7.323
						c1.942-2.938,5.898-3.745,8.835-1.804c5.865,3.877,11.686,7.979,17.303,12.19c2.812,2.1,3.391,6.109,1.278,8.928
						c-2.113,2.817-6.11,3.39-8.928,1.277c-5.416-4.059-11.03-8.014-16.687-11.754
						C2736.434,863.412,2735.899,862.897,2735.469,862.319z M2877.461,1049.58c-0.406-0.546-0.73-1.165-0.951-1.848
						c-2.086-6.464-4.393-12.948-6.854-19.27c-1.277-3.282,0.348-6.978,3.63-8.255c3.278-1.278,6.968,0.333,8.257,3.628
						c2.552,6.555,4.941,13.276,7.104,19.978c1.081,3.353-0.758,6.947-4.11,8.028
						C2881.868,1052.703,2879.047,1051.713,2877.461,1049.58z M2778.523,895.848c-1.786-2.401-1.681-5.803,0.409-8.097
						c2.373-2.603,6.408-2.789,9.01-0.415c5.206,4.746,10.331,9.704,15.235,14.737c2.454,2.506,2.405,6.56-0.118,9.017
						c-2.522,2.459-6.559,2.405-9.017-0.116c-4.728-4.853-9.672-9.636-14.694-14.215
						C2779.038,896.476,2778.764,896.171,2778.523,895.848z M2856.716,999.05c-0.217-0.292-0.412-0.606-0.582-0.943
						c-3.054-6.061-6.33-12.116-9.734-17.994c-1.765-3.046-0.726-6.948,2.322-8.713c3.048-1.765,6.953-0.726,8.715,2.322
						c3.529,6.09,6.923,12.364,10.087,18.644c1.585,3.146,0.32,6.98-2.825,8.565
						C2861.891,1002.347,2858.531,1001.49,2856.716,999.05z M2815.915,935.652c-2.035-2.736-1.558-6.618,1.126-8.773
						c2.745-2.207,6.76-1.768,8.964,0.976c4.39,5.461,8.681,11.13,12.792,16.899c2.044,2.869,1.375,6.85-1.493,8.894
						c-2.867,2.046-6.966,1.329-8.893-1.491c-3.971-5.574-8.111-11.042-12.345-16.312
						C2816.012,935.782,2815.964,935.718,2815.915,935.652z"/>
					<path style="fill:#FFFFFF;" d="M2894.331,1146.781c-0.751-1.009-1.211-2.247-1.254-3.6c-0.105-3.33-0.26-6.665-0.464-10
						c-0.214-3.514,2.462-6.538,5.975-6.755c3.519-0.211,6.54,2.465,6.756,5.977c0.212,3.459,0.37,6.915,0.48,10.372
						c0.112,3.521-2.652,6.465-6.172,6.575C2897.484,1149.422,2895.534,1148.398,2894.331,1146.781z"/>
				</g>
				<g style="opacity:0.64;">
					<path style="fill:#FFFFFF;" d="M2797.045,1402.854c-1.818-2.444-1.67-5.911,0.5-8.195c2.305-2.423,4.569-4.877,6.793-7.357
						c2.352-2.623,6.383-2.842,9.007-0.491c2.602,2.343,2.841,6.381,0.49,9.005c-2.307,2.573-4.656,5.116-7.044,7.631
						c-2.427,2.551-6.463,2.653-9.016,0.228C2797.505,1403.419,2797.261,1403.144,2797.045,1402.854z"/>
					<path style="fill:#FFFFFF;" d="M2250.88,1365.303c-0.024-0.032-0.048-0.064-0.07-0.097
						c-3.593-5.021-7.103-10.199-10.435-15.392l-1.219-1.915c-1.884-2.977-0.998-6.917,1.979-8.8
						c2.976-1.882,6.946-0.938,8.798,1.981l1.177,1.845c3.216,5.015,6.605,10.013,10.072,14.858c2.05,2.865,1.39,6.848-1.474,8.899
						C2256.875,1368.708,2252.95,1368.085,2250.88,1365.303z M2271.49,1391.438c-1.971-2.65-1.595-6.417,0.942-8.617
						c2.661-2.308,6.688-2.023,8.997,0.637c4.38,5.05,8.963,10.033,13.619,14.812c2.458,2.512,2.406,6.561-0.118,9.017
						c-2.522,2.46-6.56,2.405-9.017-0.116c-4.826-4.954-9.577-10.119-14.118-15.354
						C2271.689,1391.694,2271.587,1391.568,2271.49,1391.438z M2222.939,1319.371c-0.211-0.284-0.401-0.589-0.568-0.916
						c-3.156-6.187-6.163-12.532-8.941-18.858c-1.416-3.225,0.05-6.988,3.275-8.404c3.224-1.417,6.993,0.051,8.402,3.275
						c2.679,6.101,5.581,12.223,8.625,18.191c1.6,3.138,0.353,6.977-2.784,8.578
						C2228.138,1322.673,2224.762,1321.822,2222.939,1319.371z M2309.691,1429.244c-1.732-2.329-1.699-5.623,0.259-7.93
						c2.279-2.686,6.304-3.013,8.988-0.734c5.093,4.324,10.38,8.553,15.709,12.568c2.813,2.114,3.377,6.119,1.255,8.93
						c-2.118,2.814-6.116,3.376-8.93,1.257c-5.525-4.164-11.006-8.547-16.287-13.032
						C2310.307,1429.981,2309.975,1429.625,2309.691,1429.244z M2202.21,1269.757c-0.395-0.531-0.716-1.138-0.936-1.803
						c-2.178-6.579-4.189-13.307-5.979-19.999c-0.908-3.401,1.112-6.896,4.514-7.807c3.4-0.909,6.895,1.099,7.809,4.514
						c1.724,6.451,3.663,12.938,5.763,19.284c1.107,3.343-0.706,6.952-4.05,8.058
						C2206.654,1272.891,2203.807,1271.904,2202.21,1269.757z M2353.201,1460.806c-1.512-2.033-1.723-4.86-0.316-7.148
						c1.844-3.001,5.772-3.937,8.773-2.092c5.678,3.491,11.539,6.865,17.416,10.028c3.106,1.673,4.265,5.539,2.596,8.637
						c-1.669,3.101-5.535,4.264-8.637,2.594c-6.094-3.278-12.168-6.776-18.056-10.396
						C2354.265,1461.992,2353.671,1461.438,2353.201,1460.806z M2189.264,1217.577c-0.583-0.783-0.994-1.713-1.168-2.745
						c-1.151-6.834-2.116-13.788-2.869-20.67c-0.383-3.5,2.147-6.649,5.646-7.032c3.505-0.382,6.652,2.152,7.033,5.647
						c0.725,6.636,1.656,13.345,2.766,19.939c0.584,3.471-1.757,6.762-5.23,7.346
						C2193,1220.473,2190.648,1219.437,2189.264,1217.577z M2400.966,1485.396c-1.304-1.753-1.673-4.133-0.76-6.293
						c1.372-3.244,5.113-4.763,8.356-3.394c6.161,2.604,12.468,5.056,18.746,7.294c3.317,1.181,5.05,4.828,3.869,8.147
						c-1.183,3.317-4.83,5.049-8.149,3.867c-6.506-2.317-13.044-4.861-19.429-7.556
						C2402.514,1487.002,2401.622,1486.278,2400.966,1485.396z M2451.906,1502.518c-1.107-1.489-1.559-3.444-1.068-5.381
						c0.868-3.412,4.338-5.478,7.75-4.61c6.48,1.647,13.089,3.126,19.643,4.398c3.456,0.667,5.717,4.018,5.045,7.473
						c-0.671,3.458-4.017,5.717-7.475,5.045c-6.791-1.316-13.638-2.848-20.351-4.554
						C2453.973,1504.514,2452.749,1503.651,2451.906,1502.518z M2504.846,1511.797c-0.913-1.227-1.39-2.788-1.229-4.432
						c0.348-3.503,3.469-6.064,6.974-5.719c6.643,0.656,13.402,1.127,20.085,1.399c3.516,0.142,6.253,3.104,6.113,6.63
						c-0.144,3.519-3.111,6.257-6.632,6.113c-6.927-0.28-13.933-0.769-20.82-1.448
						C2507.476,1514.156,2505.881,1513.188,2504.846,1511.797z M2558.587,1513.013c-0.724-0.973-1.178-2.164-1.247-3.465
						c-0.188-3.518,2.513-6.52,6.03-6.706c6.67-0.354,13.425-0.908,20.075-1.651c3.502-0.388,6.652,2.139,7.044,5.632
						c0.39,3.5-2.13,6.654-5.631,7.045c-6.896,0.768-13.898,1.344-20.813,1.71
						C2561.831,1515.695,2559.818,1514.668,2558.587,1513.013z M2611.911,1506.092c-0.535-0.72-0.927-1.565-1.123-2.502
						c-0.718-3.446,1.495-6.825,4.941-7.544c6.544-1.363,13.14-2.938,19.605-4.682c3.401-0.916,6.905,1.107,7.817,4.495
						c0.918,3.4-1.095,6.9-4.495,7.818c-6.702,1.809-13.538,3.443-20.323,4.857
						C2615.821,1509.054,2613.347,1508.022,2611.911,1506.092z M2663.571,1491.143c-0.349-0.469-0.64-0.995-0.857-1.573
						c-1.233-3.298,0.438-6.973,3.738-8.208c6.256-2.344,12.525-4.899,18.632-7.595c3.223-1.425,6.989,0.029,8.41,3.257
						c1.422,3.22-0.034,6.986-3.257,8.408c-6.33,2.796-12.828,5.445-19.315,7.873
						C2668.201,1494.325,2665.223,1493.364,2663.571,1491.143z M2712.332,1468.55c-0.163-0.22-0.315-0.455-0.454-0.702
						c-1.719-3.074-0.619-6.959,2.456-8.676c5.831-3.26,11.646-6.729,17.284-10.315c2.971-1.891,6.946-1.025,8.802,1.959
						c1.89,2.972,1.013,6.915-1.959,8.804c-5.839,3.713-11.865,7.308-17.904,10.683
						C2717.729,1471.884,2714.214,1471.08,2712.332,1468.55z M2757.164,1438.895c-2.068-2.78-1.538-6.717,1.214-8.848
						c5.28-4.086,10.512-8.385,15.553-12.775c2.655-2.314,6.683-2.037,8.997,0.619c2.312,2.676,2.037,6.684-0.621,8.996
						c-5.225,4.551-10.649,9.008-16.121,13.247c-2.785,2.156-6.791,1.646-8.947-1.141
						C2757.213,1438.961,2757.189,1438.929,2757.164,1438.895z"/>
					<path style="fill:#FFFFFF;" d="M2184.387,1163.821c-0.773-1.039-1.237-2.321-1.258-3.712c-0.049-3.463-0.048-6.922,0.001-10.38
						c0.051-3.521,2.948-6.334,6.469-6.283c3.522,0.05,6.337,2.945,6.285,6.47c-0.049,3.334-0.048,6.674-0.001,10.014
						c0.049,3.521-2.765,6.416-6.288,6.466C2187.468,1166.426,2185.568,1165.408,2184.387,1163.821z"/>
				</g>
				<g>
					
						<linearGradient id="SVGID_00000103225366770989632130000015485425406089765010_" gradientUnits="userSpaceOnUse" x1="558.9088" y1="265.6736" x2="1395.3785" y2="1741.3993" gradientTransform="matrix(0.5969 0.8024 -0.8024 0.5969 2551.6104 262.5669)">
						<stop  offset="0" style="stop-color:#FF928E"/>
						<stop  offset="1" style="stop-color:#FE7062"/>
					</linearGradient>
					<path style="fill:url(#SVGID_00000103225366770989632130000015485425406089765010_);" d="M2274.471,1116.587
						c-0.444,1.763,0.279,3.614,1.801,4.608l43.415,28.372c-0.405,24.217,3.049,48.673,10.618,72.422l-33.394,39.638
						c-1.172,1.391-1.332,3.371-0.399,4.931l31.91,53.402c0.934,1.561,2.753,2.357,4.532,1.985l50.729-10.63
						c17.329,17.916,37.229,32.545,58.748,43.661l4.417,51.676c0.155,1.811,1.442,3.325,3.204,3.769l60.325,15.197
						c1.764,0.444,3.614-0.279,4.608-1.801l28.372-43.415c24.217,0.405,48.673-3.05,72.422-10.618l39.639,33.395
						c1.39,1.171,3.37,1.332,4.93,0.399l53.403-31.911c1.56-0.932,2.358-2.753,1.984-4.532l-10.63-50.729
						c17.917-17.329,32.545-37.228,43.661-58.748l51.677-4.417c1.81-0.155,3.324-1.442,3.769-3.205l15.196-60.325
						c0.445-1.763-0.279-3.614-1.801-4.608l-43.415-28.371c0.406-24.217-3.049-48.674-10.618-72.422l33.395-39.639
						c1.171-1.39,1.332-3.37,0.399-4.931l-31.911-53.403c-0.932-1.56-2.752-2.357-4.531-1.984l-50.729,10.63
						c-17.328-17.917-37.229-32.545-58.748-43.661l-4.417-51.674c-0.154-1.812-1.442-3.326-3.205-3.77L2583.5,880.68
						c-1.763-0.444-3.613,0.279-4.608,1.801l-28.372,43.414c-24.217-0.405-48.673,3.05-72.422,10.619l-39.639-33.395
						c-1.389-1.171-3.37-1.332-4.931-0.398l-53.401,31.91c-1.561,0.933-2.358,2.752-1.986,4.532l10.63,50.728
						c-17.916,17.328-32.544,37.229-43.661,58.748l-51.675,4.418c-1.812,0.154-3.324,1.441-3.769,3.205L2274.471,1116.587z"/>
					<path style="fill:#FFFFFF;" d="M2498.439,1189.069c-7.681-10.325-11.834-22.787-11.841-35.89
						c-0.009-16.119,6.261-31.274,17.653-42.676c11.39-11.404,26.539-17.687,42.657-17.696c16.119-0.007,31.274,6.261,42.676,17.653
						c23.551,23.534,23.556,61.796,0.042,85.335c-23.516,23.538-61.797,23.557-85.333,0.043
						C2502.162,1193.708,2500.206,1191.443,2498.439,1189.069z M2587.189,1123.248c-1.446-1.945-3.051-3.807-4.814-5.568
						c-9.475-9.465-22.068-14.674-35.46-14.669c-13.394,0.006-25.981,5.228-35.445,14.703c-9.464,9.475-14.673,22.068-14.667,35.459
						c0.006,13.389,5.225,25.968,14.701,35.445c19.557,19.538,51.365,19.522,70.906-0.034
						C2600.184,1170.788,2601.775,1142.855,2587.189,1123.248z"/>
					<path style="fill:#FFFFFF;" d="M2425.817,1244.578c-3.06-4.113-5.935-8.411-8.621-12.904
						c-3.98-6.663-7.454-13.617-10.374-20.763c-0.024-0.06-0.048-0.119-0.071-0.177c-0.128-0.314-0.255-0.627-0.38-0.941
						c-0.018-0.045-0.035-0.089-0.053-0.131l-0.002-0.002c-0.015-0.041-0.031-0.079-0.046-0.121
						c-0.061-0.15-0.122-0.304-0.182-0.455c-0.007-0.022-0.017-0.046-0.027-0.07c-0.023-0.061-0.046-0.121-0.071-0.18
						c-0.007-0.02-0.016-0.041-0.023-0.06c-0.18-0.459-0.357-0.918-0.531-1.378c-0.062-0.162-0.124-0.324-0.184-0.487
						c-0.377-0.999-0.74-2.001-1.094-3.005c-0.204-0.578-0.404-1.156-0.599-1.737c-0.363-1.072,0.03-2.22,0.892-2.862
						c0.21-0.156,0.446-0.282,0.707-0.37c1.332-0.451,2.779,0.261,3.234,1.599c3.345,9.883,7.781,19.481,13.183,28.521
						c20.213,33.838,52.404,57.772,90.62,67.398c38.222,9.628,77.905,3.797,111.738-16.421c4.349-2.599,8.515-5.387,12.495-8.347
						c59.947-44.609,77.62-128.514,38.483-194.01c-20.222-33.834-52.403-57.77-90.621-67.397
						c-38.221-9.628-77.904-3.798-111.737,16.421c-4.306,2.573-8.465,5.353-12.463,8.33c-17.325,12.894-31.639,29.435-41.853,48.485
						c-0.184,0.341-0.434,0.624-0.726,0.841c-0.768,0.572-1.828,0.683-2.728,0.201c-1.241-0.663-1.709-2.215-1.043-3.453
						c10.57-19.713,25.379-36.827,43.303-50.167c4.135-3.079,8.438-5.957,12.891-8.618c35.005-20.916,76.059-26.951,115.601-16.989
						c39.543,9.961,72.846,34.739,93.754,69.726c40.49,67.761,22.206,154.568-39.813,200.719c-4.117,3.063-8.427,5.949-12.925,8.637
						C2558.786,1324.905,2471.963,1306.611,2425.817,1244.578z"/>
				</g>
			</g>
			<g>
				<g style="opacity:0.64;">
					<path style="fill:#FFFFFF;" d="M2671.878,1435.532c-1.647-2.215-1.717-5.33,0.027-7.645c2.085-2.765,4.263-5.531,6.478-8.222
						c2.238-2.72,6.256-3.111,8.976-0.874c2.721,2.239,3.111,6.255,0.874,8.978c-2.1,2.553-4.167,5.177-6.144,7.799
						c-2.121,2.81-6.12,3.372-8.931,1.251C2672.66,1436.443,2672.232,1436.007,2671.878,1435.532z"/>
					<path style="fill:#FFFFFF;" d="M2700.827,1403.636c-1.927-2.59-1.62-6.271,0.81-8.501c5.081-4.658,10.436-9.166,15.917-13.396
						c2.79-2.15,6.793-1.635,8.945,1.154c2.211,2.82,1.634,6.794-1.153,8.945c-5.197,4.009-10.273,8.281-15.086,12.697
						c-2.597,2.379-6.63,2.206-9.012-0.391C2701.098,1403.982,2700.958,1403.812,2700.827,1403.636z M2743.699,1372.332
						c-0.15-0.202-0.291-0.417-0.419-0.641c-1.752-3.056-0.694-6.953,2.362-8.705c6.003-3.441,12.213-6.66,18.459-9.568
						c3.194-1.488,6.988-0.107,8.473,3.089c1.488,3.193,0.104,6.986-3.089,8.473c-5.92,2.758-11.809,5.81-17.501,9.073
						C2749.153,1375.673,2745.599,1374.886,2743.699,1372.332z M2792.391,1351.224c-0.425-0.572-0.762-1.225-0.982-1.946
						c-1.029-3.367,0.869-6.933,4.237-7.961c6.621-2.02,13.397-3.775,20.138-5.216c3.443-0.736,6.833,1.456,7.569,4.904
						c0.736,3.445-1.46,6.833-4.904,7.569c-6.387,1.364-12.805,3.028-19.077,4.943
						C2796.723,1354.326,2793.953,1353.325,2792.391,1351.224z M2844.588,1341.521c-0.702-0.943-1.15-2.091-1.241-3.349
						c-0.251-3.514,2.394-6.565,5.908-6.813c6.895-0.494,13.892-0.694,20.795-0.595c3.521,0.051,6.334,2.941,6.288,6.465
						c-0.051,3.521-2.945,6.335-6.467,6.286c-6.542-0.091-13.175,0.098-19.71,0.563
						C2847.908,1344.239,2845.843,1343.208,2844.588,1341.521z M2897.637,1343.677c-0.983-1.321-1.456-3.018-1.186-4.771
						c0.533-3.482,3.788-5.872,7.269-5.339c6.821,1.045,13.687,2.398,20.408,4.021c3.418,0.823,5.529,4.269,4.702,7.694
						c-0.825,3.423-4.271,5.53-7.695,4.702c-6.372-1.538-12.881-2.818-19.348-3.81
						C2900.061,1345.91,2898.603,1344.976,2897.637,1343.677z M2948.885,1357.496c-1.271-1.709-1.656-4.015-0.821-6.145
						c1.289-3.278,4.991-4.889,8.268-3.601c6.433,2.529,12.831,5.364,19.014,8.427c3.158,1.572,4.45,5.392,2.885,8.546
						c-1.563,3.156-5.389,4.446-8.545,2.885c-5.86-2.903-11.924-5.591-18.02-7.987
						C2950.518,1359.168,2949.572,1358.419,2948.885,1357.496z M3093.966,1527.886c-0.525-0.706-0.913-1.532-1.111-2.446
						c-1.395-6.395-3.084-12.807-5.025-19.059c-1.045-3.364,0.836-6.937,4.199-7.982c3.362-1.045,6.941,0.835,7.98,4.2
						c2.05,6.603,3.834,13.373,5.307,20.122c0.75,3.441-1.431,6.839-4.872,7.589
						C3097.917,1530.864,3095.414,1529.833,3093.966,1527.886z M2995.783,1382.297c-1.579-2.123-1.724-5.095-0.15-7.401
						c1.986-2.909,5.953-3.658,8.863-1.672c5.711,3.898,11.315,8.084,16.657,12.444c2.733,2.233,3.136,6.246,0.908,8.974
						c-2.228,2.728-6.246,3.134-8.974,0.907c-5.06-4.131-10.369-8.096-15.782-11.79
						C2996.704,1383.347,2996.195,1382.851,2995.783,1382.297z M3076.89,1477.625c-0.25-0.336-0.471-0.702-0.656-1.095
						c-2.788-5.918-5.868-11.798-9.154-17.472c-1.766-3.048-0.725-6.949,2.323-8.714c3.048-1.764,6.945-0.72,8.714,2.323
						c3.466,5.984,6.713,12.184,9.656,18.427c1.501,3.186,0.134,6.985-3.052,8.486
						C3081.928,1480.897,3078.664,1480.01,3076.89,1477.625z M3035.972,1416.935c-1.919-2.58-1.624-6.246,0.79-8.479
						c2.584-2.394,6.619-2.238,9.012,0.347c4.678,5.055,9.208,10.388,13.463,15.85c0.031,0.039,0.059,0.077,0.087,0.115
						c2.064,2.774,1.542,6.702-1.2,8.835c-2.778,2.166-6.785,1.666-8.948-1.111c-4.034-5.18-8.328-10.235-12.762-15.025
						C3036.255,1417.296,3036.107,1417.117,3035.972,1416.935z"/>
					<path style="fill:#FFFFFF;" d="M3099.283,1570.802c-0.751-1.009-1.211-2.248-1.254-3.6c-0.104-3.285-0.282-6.618-0.529-9.908
						c-0.263-3.511,2.37-6.572,5.881-6.837c3.516-0.262,6.577,2.372,6.837,5.883c0.261,3.472,0.449,6.99,0.559,10.457
						c0.113,3.521-2.651,6.465-6.172,6.575C3102.436,1573.443,3100.486,1572.419,3099.283,1570.802z"/>
				</g>
				<g style="opacity:0.64;">
					<path style="fill:#FFFFFF;" d="M3031.819,1744.637c-1.841-2.474-1.66-5.986,0.563-8.261c2.321-2.372,4.604-4.809,6.784-7.241
						c2.351-2.621,6.383-2.842,9.005-0.493c2.614,2.347,2.843,6.383,0.492,9.007c-2.303,2.567-4.712,5.141-7.162,7.647
						c-2.463,2.518-6.5,2.562-9.019,0.099C3032.239,1745.157,3032.017,1744.903,3031.819,1744.637z"/>
					<path style="fill:#FFFFFF;" d="M2671.223,1720.705c-1.606-2.177-3.263-4.462-4.848-6.747c-2.008-2.893-1.291-6.867,1.603-8.876
						c2.835-1.966,6.707-1.316,8.75,1.43c0.043,0.058,0.085,0.117,0.125,0.174c1.492,2.15,3.012,4.266,4.562,6.349
						c0.015,0.02,0.028,0.038,0.043,0.058c2.281,3.066,4.67,6.116,7.104,9.068c2.278,2.77,1.856,6.738-0.864,8.979
						c-2.718,2.239-6.737,1.854-8.977-0.864C2676.152,1727.16,2673.629,1723.939,2671.223,1720.705z M2649.877,1686.344
						c-0.211-0.284-0.401-0.59-0.568-0.916c-3.092-6.061-5.96-12.322-8.53-18.61c-1.331-3.26,0.233-6.982,3.493-8.314
						c3.261-1.33,6.98,0.231,8.316,3.491c2.433,5.958,5.155,11.894,8.084,17.638c1.6,3.138,0.353,6.977-2.784,8.578
						C2655.076,1689.646,2651.7,1688.795,2649.877,1686.344z M2700.765,1753.531c-1.793-2.411-1.678-5.831,0.432-8.121
						c2.386-2.591,6.42-2.757,9.011-0.37c4.736,4.363,9.718,8.577,14.804,12.524c2.771,2.154,3.285,6.165,1.128,8.947
						c-2.159,2.782-6.165,3.288-8.948,1.129c-5.368-4.166-10.626-8.615-15.627-13.222
						C2701.267,1754.145,2701,1753.846,2700.765,1753.531z M2631.408,1637.468c-0.482-0.647-0.848-1.397-1.06-2.226
						c-1.684-6.59-3.106-13.328-4.229-20.031c-0.581-3.473,1.764-6.761,5.237-7.342c3.472-0.58,6.758,1.763,7.342,5.237
						c1.063,6.35,2.41,12.734,4.007,18.978c0.872,3.412-1.187,6.885-4.6,7.756
						C2635.524,1640.501,2632.906,1639.483,2631.408,1637.468z M2742.838,1784.442c-1.472-1.979-1.72-4.722-0.408-6.995
						c1.76-3.051,5.659-4.098,8.711-2.338c5.569,3.212,11.353,6.23,17.187,8.969c3.187,1.492,4.56,5.292,3.063,8.483
						c-1.496,3.187-5.294,4.559-8.483,3.063c-6.156-2.89-12.26-6.074-18.14-9.465
						C2743.99,1785.708,2743.342,1785.119,2742.838,1784.442z M2790.667,1805.393c-1.178-1.583-1.606-3.686-0.972-5.713
						c1.051-3.362,4.628-5.235,7.99-4.184c6.15,1.923,12.453,3.608,18.738,5.012c3.44,0.772,5.604,4.18,4.834,7.615
						c-0.768,3.437-4.177,5.6-7.614,4.834c-6.63-1.482-13.28-3.26-19.767-5.29
						C2792.541,1807.252,2791.442,1806.437,2790.667,1805.393z M2841.918,1815.44c-0.895-1.203-1.372-2.727-1.237-4.339
						c0.295-3.51,3.38-6.116,6.891-5.818c6.423,0.54,12.943,0.816,19.382,0.82c3.522-0.002,6.375,2.862,6.374,6.38
						c-0.002,3.522-2.858,6.376-6.381,6.374c-6.791-0.003-13.67-0.294-20.447-0.866
						C2844.605,1817.832,2842.971,1816.855,2841.918,1815.44z M2894.136,1814.088c-0.622-0.835-1.046-1.833-1.198-2.937
						c-0.478-3.488,1.964-6.705,5.453-7.183c6.38-0.874,12.803-2.033,19.092-3.444c3.438-0.769,6.852,1.392,7.618,4.827
						c0.771,3.437-1.39,6.849-4.826,7.62c-6.637,1.488-13.418,2.711-20.153,3.632
						C2897.736,1816.931,2895.479,1815.893,2894.136,1814.088z M2944.811,1801.311c-0.349-0.47-0.641-0.998-0.856-1.574
						c-1.234-3.298,0.438-6.973,3.737-8.207c6.022-2.253,12.031-4.795,17.859-7.553c3.184-1.509,6.99-0.121,8.493,3.034
						c1.508,3.185,0.148,6.987-3.036,8.492c-6.15,2.911-12.491,5.594-18.846,7.971
						C2949.439,1804.493,2946.462,1803.531,2944.811,1801.311z M2991.417,1777.752c-0.08-0.108-0.157-0.218-0.232-0.333
						c-1.92-2.952-1.084-6.902,1.868-8.822c4.084-2.656,8.123-5.468,12.003-8.355c1.281-0.953,2.547-1.916,3.803-2.891
						c2.779-2.164,6.787-1.661,8.948,1.118c0.029,0.037,0.057,0.075,0.084,0.111c2.065,2.776,1.541,6.706-1.205,8.838
						c-1.325,1.032-2.664,2.05-4.018,3.057c-4.094,3.046-8.354,6.009-12.66,8.812
						C2997.172,1781.134,2993.411,1780.433,2991.417,1777.752z"/>
					<path style="fill:#FFFFFF;" d="M2624.135,1585.578c-0.754-1.013-1.215-2.26-1.254-3.618c-0.1-3.486-0.125-7.011-0.073-10.474
						c0.052-3.522,2.949-6.335,6.471-6.282c3.522,0.05,6.335,2.953,6.281,6.471c-0.048,3.28-0.026,6.616,0.069,9.917
						c0.101,3.52-2.67,6.457-6.191,6.558C2627.276,1588.212,2625.335,1587.191,2624.135,1585.578z"/>
				</g>
				<g>
					
						<linearGradient id="SVGID_00000089575123087014140210000003740507293324202687_" gradientUnits="userSpaceOnUse" x1="1260.9873" y1="509.6762" x2="1505.3639" y2="279.9625" gradientTransform="matrix(0.5969 0.8024 -0.8024 0.5969 2551.6104 262.5669)">
						<stop  offset="0" style="stop-color:#FF928E"/>
						<stop  offset="1" style="stop-color:#FE7062"/>
					</linearGradient>
					<path style="fill:url(#SVGID_00000089575123087014140210000003740507293324202687_);" d="M2686.056,1549.333
						c-0.297,1.18,0.187,2.419,1.205,3.084l29.061,18.991c-0.271,16.21,2.041,32.581,7.107,48.477l-22.353,26.533
						c-0.784,0.931-0.891,2.256-0.268,3.301l21.36,35.746c0.625,1.045,1.843,1.578,3.033,1.329l33.957-7.116
						c11.6,11.993,24.92,21.785,39.324,29.226l2.957,34.59c0.104,1.212,0.965,2.225,2.145,2.523l40.38,10.172
						c1.181,0.297,2.419-0.187,3.085-1.205l18.991-29.061c16.21,0.271,32.581-2.041,48.477-7.108l26.533,22.354
						c0.931,0.784,2.256,0.891,3.301,0.267l35.746-21.36c1.045-0.624,1.579-1.842,1.329-3.033l-7.116-33.957
						c11.993-11.599,21.785-24.92,29.226-39.324l34.591-2.957c1.212-0.104,2.225-0.965,2.522-2.145l10.172-40.38
						c0.298-1.18-0.187-2.419-1.206-3.084l-29.061-18.991c0.272-16.21-2.041-32.581-7.107-48.477l22.354-26.533
						c0.784-0.931,0.891-2.256,0.267-3.301l-21.361-35.746c-0.624-1.045-1.842-1.578-3.033-1.328l-33.957,7.116
						c-11.599-11.993-24.92-21.785-39.324-29.226l-2.957-34.59c-0.103-1.213-0.966-2.226-2.146-2.523l-40.38-10.172
						c-1.18-0.297-2.419,0.187-3.085,1.205l-18.991,29.061c-16.21-0.271-32.581,2.041-48.477,7.108l-26.533-22.354
						c-0.93-0.784-2.256-0.891-3.3-0.267l-35.746,21.36c-1.045,0.624-1.578,1.842-1.329,3.033l7.116,33.957
						c-11.992,11.599-21.784,24.92-29.226,39.324l-34.59,2.957c-1.213,0.104-2.225,0.965-2.523,2.145L2686.056,1549.333z"/>
					<path style="opacity:0.56;fill:#FFFFFF;" d="M2832.568,1600.373c-5.681-7.637-8.753-16.854-8.757-26.545
						c-0.007-11.92,4.63-23.131,13.056-31.563c8.424-8.433,19.628-13.083,31.55-13.088c11.92-0.006,23.129,4.63,31.562,13.055
						c8.441,8.431,13.082,19.629,13.088,31.551c0.005,11.921-4.63,23.131-13.056,31.562c-8.424,8.434-19.628,13.083-31.549,13.09
						c-11.922,0.005-23.131-4.632-31.563-13.057C2835.321,1603.802,2833.875,1602.13,2832.568,1600.373z M2892.008,1556.35
						c-0.858-1.153-1.808-2.253-2.844-3.289c-5.542-5.536-12.907-8.582-20.739-8.578c-7.832,0.004-15.195,3.057-20.73,8.6
						s-8.583,12.907-8.579,20.738c0.005,7.83,3.057,15.187,8.6,20.732l0,0c5.542,5.536,12.907,8.583,20.739,8.578
						c7.832-0.005,15.195-3.058,20.73-8.6c5.535-5.542,8.582-12.907,8.578-20.74
						C2897.759,1567.424,2895.74,1561.367,2892.008,1556.35z"/>
					<path style="opacity:0.56;fill:#FFFFFF;" d="M2786.687,1635.51c-2.065-2.776-4.006-5.677-5.818-8.708l0,0
						c-3.77-6.311-6.867-13.011-9.201-19.911c-0.363-1.072,0.03-2.22,0.892-2.862c0.21-0.156,0.446-0.282,0.707-0.37
						c1.332-0.451,2.779,0.261,3.234,1.599c2.219,6.558,5.162,12.925,8.748,18.926c27.686,46.376,87.945,61.53,134.298,33.832
						c2.886-1.725,5.653-3.574,8.292-5.541c39.784-29.604,51.513-85.288,25.54-128.755c-27.707-46.36-87.945-61.53-134.298-33.832
						c-2.859,1.708-5.619,3.552-8.272,5.529c-11.499,8.557-20.997,19.534-27.773,32.178c-0.184,0.341-0.434,0.624-0.726,0.841
						c-0.768,0.572-1.828,0.683-2.728,0.201c-1.237-0.663-1.707-2.211-1.043-3.453c7.13-13.305,17.125-24.857,29.224-33.859
						c2.791-2.079,5.695-4.019,8.7-5.817c48.77-29.142,112.13-13.18,141.296,35.594c27.326,45.734,14.986,104.318-26.869,135.466
						c-2.779,2.068-5.688,4.014-8.724,5.828C2876.428,1689.724,2817.83,1677.376,2786.687,1635.51z"/>
				</g>
			</g>
			<g>
				<g style="opacity:0.64;">
					<path style="fill:#FFFFFF;" d="M2309.823,1557.864c-1.547-3.532-0.663-7.799,2.44-10.401c3.808-3.191,7.789-6.269,11.835-9.147
						c4.009-2.854,9.572-1.916,12.426,2.097c2.855,4.008,1.913,9.573-2.095,12.423c-3.663,2.607-7.268,5.394-10.716,8.284
						c-3.772,3.161-9.391,2.666-12.553-1.106C2310.6,1559.348,2310.156,1558.623,2309.823,1557.864z"/>
					<path style="fill:#FFFFFF;" d="M2360.876,1527.925c-0.062-0.14-0.12-0.282-0.173-0.426c-1.743-4.602,0.575-9.744,5.176-11.489
						c1.208-0.457,2.421-0.909,3.644-1.345c7.927-2.833,16.105-5.157,24.295-6.901c4.812-1.024,9.553,2.036,10.57,6.857
						c1.025,4.813-2.046,9.544-6.859,10.569c-7.415,1.579-14.821,3.687-22.012,6.259c-1.12,0.4-2.226,0.812-3.326,1.229
						C2367.733,1534.364,2362.767,1532.241,2360.876,1527.925z M2432.435,1516.339c-0.531-1.212-0.799-2.561-0.735-3.972
						c0.224-4.916,4.389-8.719,9.304-8.497c9.692,0.44,19.435,1.652,28.961,3.605c4.823,0.988,7.927,5.701,6.939,10.518
						c-0.989,4.822-5.696,7.928-10.518,6.939c-8.616-1.766-17.427-2.862-26.189-3.262
						C2436.693,1521.511,2433.753,1519.348,2432.435,1516.339z M2502.675,1534.326c-1.014-2.314-1.042-5.042,0.155-7.493
						c2.161-4.419,7.497-6.251,11.917-4.091c8.718,4.264,17.171,9.24,25.125,14.8c4.027,2.822,5.022,8.371,2.2,12.407
						c-2.819,4.035-8.374,5.02-12.407,2.201c-7.2-5.031-14.854-9.541-22.743-13.396
						C2504.949,1537.787,2503.492,1536.191,2502.675,1534.326z M2559.97,1578.695c-1.535-3.504-0.68-7.739,2.38-10.348
						c3.743-3.197,9.367-2.753,12.563,0.991c6.305,7.387,12.073,15.333,17.141,23.613c2.584,4.195,1.25,9.681-2.947,12.249
						c-4.197,2.572-9.683,1.25-12.251-2.948c-4.58-7.482-9.794-14.663-15.498-21.345
						C2560.775,1580.223,2560.313,1579.475,2559.97,1578.695z M2600.856,1669.394c-0.317-0.724-0.541-1.5-0.66-2.322
						c-1.235-8.662-3.172-17.328-5.758-25.759c-1.442-4.703,1.2-9.687,5.905-11.131c4.702-1.444,9.669,1.173,11.131,5.904
						c2.858,9.316,5,18.895,6.365,28.472c0.694,4.871-2.692,9.382-7.565,10.077
						C2606.223,1675.213,2602.421,1672.968,2600.856,1669.394z"/>
					<path style="fill:#FFFFFF;" d="M2599.265,1728.735c-0.705-1.61-0.943-3.44-0.577-5.295c0.874-4.421,1.575-8.92,2.085-13.368
						c0.561-4.889,4.978-8.397,9.867-7.836c4.894,0.565,8.401,4.992,7.837,9.87c-0.563,4.921-1.341,9.896-2.306,14.788
						c-0.953,4.825-5.639,7.968-10.466,7.015C2602.729,1733.32,2600.396,1731.317,2599.265,1728.735z"/>
				</g>
				<g style="opacity:0.64;">
					<path style="fill:#FFFFFF;" d="M2515.045,1847.818c-1.784-4.074-0.281-8.928,3.644-11.243
						c3.872-2.281,7.701-4.748,11.375-7.334c4.025-2.831,9.583-1.864,12.415,2.162c2.812,4.027,1.864,9.583-2.162,12.414
						c-4.064,2.859-8.297,5.587-12.581,8.113c-4.239,2.498-9.702,1.084-12.199-3.153
						C2515.352,1848.462,2515.188,1848.143,2515.045,1847.818z"/>
					<path style="fill:#FFFFFF;" d="M2267.415,1778.727c-1.846-4.215-0.169-9.208,3.957-11.418
						c4.337-2.325,9.737-0.693,12.063,3.646c4.085,7.623,8.787,14.975,13.976,21.856c2.965,3.919,2.181,9.517-1.748,12.48
						c-3.929,2.963-9.515,2.18-12.479-1.75c-5.74-7.609-10.939-15.743-15.457-24.171
						C2267.615,1779.161,2267.51,1778.944,2267.415,1778.727z M2251.47,1737.379c-0.198-0.453-0.361-0.929-0.485-1.425
						c-2.317-9.282-3.931-18.8-4.796-28.293c-0.446-4.9,3.165-9.236,8.065-9.68c4.898-0.451,9.231,3.143,9.681,8.063
						c0.783,8.586,2.242,17.196,4.338,25.591c1.192,4.774-1.712,9.611-6.487,10.805
						C2257.509,1743.508,2253.182,1741.287,2251.47,1737.379z M2313.033,1833.518c-1.285-2.933-0.94-6.466,1.199-9.143
						c3.071-3.845,8.678-4.473,12.522-1.4c6.741,5.384,13.959,10.297,21.455,14.602c4.271,2.45,5.739,7.894,3.291,12.161
						c-2.45,4.269-7.896,5.742-12.164,3.29c-8.283-4.754-16.256-10.18-23.706-16.132
						C2314.464,1835.965,2313.595,1834.8,2313.033,1833.518z M2376.489,1866.024c-0.797-1.82-0.993-3.912-0.418-5.972
						c1.328-4.739,6.242-7.506,10.983-6.178c8.338,2.333,16.906,4.037,25.459,5.063c4.889,0.587,8.369,5.028,7.786,9.908
						c-0.587,4.885-5.022,8.37-9.908,7.786c-9.458-1.135-18.926-3.019-28.141-5.598
						C2379.571,1870.282,2377.523,1868.386,2376.489,1866.024z M2447.618,1871.094c-0.328-0.749-0.558-1.557-0.672-2.411
						c-0.645-4.878,2.787-9.356,7.666-9.999c8.536-1.132,17.077-2.938,25.388-5.374c4.719-1.383,9.664,1.288,11.056,6.044
						c1.385,4.72-1.321,9.671-6.044,11.056c-9.183,2.692-18.625,4.692-28.063,5.938
						C2452.922,1876.88,2449.169,1874.636,2447.618,1871.094z"/>
					<path style="fill:#FFFFFF;" d="M2248.469,1665.93c-0.666-1.521-0.915-3.243-0.627-5.003c0.802-4.911,1.807-9.842,2.991-14.655
						c1.177-4.779,6.004-7.699,10.783-6.52c4.775,1.176,7.698,5.999,6.521,10.781c-1.072,4.353-1.984,8.814-2.709,13.262
						c-0.791,4.856-5.371,8.15-10.227,7.359C2252.103,1670.65,2249.64,1668.605,2248.469,1665.93z"/>
				</g>
				<g>
					
						<linearGradient id="SVGID_00000022560503460825263110000014973553175007661469_" gradientUnits="userSpaceOnUse" x1="899.298" y1="732.5568" x2="133.04" y2="1630.6815" gradientTransform="matrix(0.4012 0.916 -0.916 0.4012 3057.9023 667.5407)">
						<stop  offset="0" style="stop-color:#FF928E"/>
						<stop  offset="1" style="stop-color:#FE7062"/>
					</linearGradient>
					<path style="fill:url(#SVGID_00000022560503460825263110000014973553175007661469_);" d="M2304.782,1641.738
						c-0.416,0.812-0.271,1.798,0.36,2.456l18.03,18.773c-2.93,11.797-4.001,24.146-2.979,36.613l-20.803,15.615
						c-0.73,0.547-1.032,1.498-0.752,2.366l9.579,29.715c0.28,0.868,1.08,1.463,1.992,1.482l26.007,0.526
						c6.452,10.717,14.533,20.115,23.802,27.98l-3.671,25.768c-0.128,0.903,0.33,1.789,1.142,2.205l27.785,14.239
						c0.813,0.416,1.799,0.271,2.457-0.361l18.773-18.029c11.797,2.93,24.146,4.001,36.613,2.979l15.616,20.803
						c0.548,0.73,1.498,1.031,2.366,0.752l29.716-9.579c0.868-0.28,1.464-1.08,1.482-1.992l0.526-26.007
						c10.717-6.452,20.116-14.533,27.98-23.802l25.769,3.671c0.902,0.128,1.788-0.33,2.204-1.142l14.238-27.785
						c0.417-0.812,0.271-1.798-0.36-2.456l-18.03-18.773c2.931-11.797,4.001-24.146,2.979-36.613l20.803-15.616
						c0.73-0.548,1.032-1.498,0.752-2.366l-9.579-29.715c-0.28-0.868-1.08-1.464-1.992-1.482l-26.007-0.526
						c-6.452-10.717-14.533-20.116-23.802-27.98l3.671-25.768c0.129-0.903-0.33-1.789-1.142-2.205l-27.785-14.238
						c-0.812-0.416-1.799-0.271-2.457,0.361l-18.773,18.029c-11.797-2.931-24.146-4.001-36.613-2.979l-15.616-20.803
						c-0.547-0.729-1.498-1.031-2.366-0.751l-29.715,9.579c-0.868,0.28-1.464,1.079-1.482,1.992l-0.526,26.006
						c-10.716,6.453-20.115,14.533-27.98,23.802l-25.768-3.671c-0.903-0.129-1.788,0.33-2.205,1.142L2304.782,1641.738z"/>
					<path style="opacity:0.56;fill:#FFFFFF;" d="M2398.697,1705.751c-7.512-17.152-1.513-37.729,14.822-47.953
						c17.959-11.236,41.708-5.766,52.944,12.188c5.444,8.692,7.172,19,4.869,28.994c-2.301,10.002-8.359,18.506-17.06,23.947
						c-17.956,11.234-41.704,5.764-52.939-12.19C2400.32,1709.117,2399.441,1707.45,2398.697,1705.751z M2449.514,1683.559
						c-0.335-0.765-0.729-1.512-1.178-2.231c-4.981-7.96-15.512-10.385-23.474-5.404c-7.958,4.982-10.392,15.506-5.403,23.47
						c4.981,7.959,15.51,10.385,23.472,5.405c3.856-2.414,6.541-6.182,7.562-10.614
						C2451.323,1690.579,2450.972,1686.888,2449.514,1683.559z"/>
					<path style="opacity:0.56;fill:#FFFFFF;" d="M2362.259,1722.322c-1.063-2.426-2.011-4.925-2.842-7.499
						c-0.524-1.632-0.999-3.283-1.418-4.942c-0.005-0.021-0.009-0.034-0.017-0.065c-0.676-2.683-1.211-5.397-1.6-8.125
						c-0.007-0.046-0.014-0.093-0.021-0.139c-0.01-0.079-0.021-0.161-0.033-0.24c-0.074-0.542-0.145-1.084-0.207-1.627
						c-0.052-0.434-0.098-0.865-0.141-1.302c-0.158-1.576,0.738-3.013,2.114-3.616c0.335-0.147,0.697-0.245,1.079-0.283
						c1.957-0.196,3.709,1.233,3.901,3.193c0.505,5.049,1.556,10.083,3.129,14.957l0,0c7.468,23.202,25.654,39.919,47.307,46.584
						c13.234,4.072,27.764,4.369,41.935,0.047c0.363-0.113,0.724-0.226,1.086-0.343c2.363-0.761,4.667-1.633,6.908-2.615
						c15.083-6.61,27.334-18.108,34.945-32.961c8.742-17.063,10.319-36.505,4.437-54.751
						c-12.137-37.689-52.667-58.425-90.329-46.289c-2.323,0.747-4.599,1.611-6.819,2.584c-9.622,4.214-18.214,10.489-25.135,18.402
						c-0.357,0.407-0.788,0.713-1.253,0.917c-1.226,0.537-2.703,0.355-3.778-0.584c-1.472-1.293-1.627-3.547-0.334-5.029
						c7.614-8.7,17.061-15.599,27.637-20.235c2.44-1.069,4.941-2.019,7.495-2.842c41.405-13.342,85.951,9.515,99.301,50.886
						c6.465,20.058,4.732,41.434-4.877,60.191c-8.368,16.329-21.835,28.968-38.417,36.234c-2.464,1.079-4.996,2.04-7.592,2.876
						C2419.888,1778.224,2378.288,1758.921,2362.259,1722.322z"/>
				</g>
			</g>
		</g>
	</g>
</g>
</svg>
